<?xml version="1.0" encoding="utf-8"?>
<!-- Generator: Adobe Illustrator 18.0.0, SVG Export Plug-In . SVG Version: 6.00 Build 0)  -->
<!DOCTYPE svg PUBLIC "-//W3C//DTD SVG 1.1//EN" "http://www.w3.org/Graphics/SVG/1.1/DTD/svg11.dtd">
<svg version="1.1" xmlns="http://www.w3.org/2000/svg" xmlns:xlink="http://www.w3.org/1999/xlink" x="0px" y="0px"
	 viewBox="0 0 1250 578.7" enable-background="new 0 0 1250 578.7" xml:space="preserve">
<g id="Layer_2">
	<rect fill="#6FBEC5" width="1251" height="580.5"/>
</g>
<g id="Layer_1">
	
		<rect x="679.3" y="81.6" transform="matrix(0.878 0.4786 -0.4786 0.878 208.8091 -351.3592)" opacity="0.25" fill="#42464F" width="228.9" height="304.8"/>
	
		<rect x="672.3" y="73.1" transform="matrix(0.878 0.4786 -0.4786 0.878 203.9132 -349.039)" fill="#FFFFFF" width="228.9" height="304.8"/>
	
		<rect x="696.4" y="90.8" transform="matrix(0.878 0.4786 -0.4786 0.878 195.7866 -356.3305)" fill="#42464F" width="201.2" height="230.3"/>
	
		<rect x="625.9" y="66.1" transform="matrix(0.9693 0.2458 -0.2458 0.9693 76.4539 -175.3059)" opacity="0.25" fill="#42464F" width="228.9" height="304.8"/>
	
		<rect x="620.8" y="60.4" transform="matrix(0.9693 0.2458 -0.2458 0.9693 74.8891 -174.2372)" fill="#FFFFFF" width="228.9" height="304.8"/>
	
		<rect x="639.7" y="76.2" transform="matrix(0.9693 0.2458 -0.2458 0.9693 69.7543 -176.1423)" fill="#62B0B2" width="201.2" height="230.3"/>
	<path fill="#6D8833" d="M821.8,280.8c-69.7-63.7-145.4-90.1-182.5-100.5L615,277.9l195,49.5L821.8,280.8z"/>
	<path fill="#565F75" d="M617.1,269.7l-2.1,8.2l195,49.5l14-55.3C740.6,256.2,665.6,257.7,617.1,269.7z"/>
	<circle fill="#E9D922" cx="809.9" cy="149.4" r="23.1"/>
</g>
<g id="Layer_4">
	<path opacity="0.29" fill="none" stroke="#2D3E50" stroke-width="5" stroke-miterlimit="10" d="M334,361.5h173.5
		c0,0,90.4-6.1,88.6,67.8s52.7,63.1,80.6,63.1c27.9,0,38.5,4.6,38.5,4.6"/>
	<path opacity="0.29" fill="none" stroke="#2D3E50" stroke-width="5" stroke-miterlimit="10" d="M616.1,260.4
		c0,0-3.9,56.1-78.7,71.7c0,0-53,8.3-131.7-12.6s-99.5-25.6-123-25.6c-23.5,0-64.3-7-77.8,26.1c-7.8,39.5,49.1,49.1,57.8,41.7"/>
	<path opacity="0.29" fill="none" stroke="#2D3E50" stroke-width="5" stroke-miterlimit="10" d="M528.5,235v18.1
		c0,0,1.6,44.6-49.6,52.1c0,0-36.7,4.2-96.2-20.4s-125.2-26.6-125.2-26.6s-46.3-3.5-66.6,17.7s-14,44.3-6.3,57.2
		s32.6,24.9,32.6,24.9s14.3,7,35,6"/>
	<g opacity="0.29">
		<path fill="#2D3E50" d="M573.1,168.2c0,0-7.4-0.2-11.6,0c-4.2,0.2-3.7,4.7-3.7,4.7s0,4.1,0,9.1H550v-6h-12.6
			c0,0-16.4-0.7-18.4,15.9V234c0,0,0.4,6,6.1,6h9.9c0,0,4.5,0.2,4-5.7l0.2-20.5c0,0-0.2-4.8,5.2-4.8h5.6v-6h7.5c0,4,0.1,7.7,0.3,9
			c0.7,4.7,5.4,4,5.4,4h10.6c13.9-1,15.2-16.1,15.2-16.1v-15C588,168.9,573.1,168.2,573.1,168.2z"/>
		<path fill="#2D3E50" d="M664.7,200.7c0,0-7.5-0.9-11.8-1.1c-4.3-0.1-4.1,3.7-4.1,3.7s-0.4,3.4-0.9,8.3l-7-0.6l0.5-5.5l-13.2-1.2
			c0,0-15.8-1.1-18.9,15.3l-3.8,41.9c0,0-1,4.9,4.6,5.4l9.8,0.9c0,0,4.4,1.1,4.5-4.8l2.1-21c0,0,0.2-5.3,5.7-4.9l6.3,0.6l0.5-5.9
			l6.8,0.6c-0.4,4.6-0.6,8.3-0.6,9.7c0.3,4.8,4.9,5,4.9,5l10.6,1c14-0.4,17.3-14.3,17.3-14.3l1.3-14.9
			C680.1,202.8,664.7,200.7,664.7,200.7z"/>
		<rect x="236" y="352" fill="#2D3E50" width="103" height="20"/>
	</g>
</g>
<g id="Layer_3">
	<rect x="545.5" y="178" fill="#FAD76B" width="17.2" height="20.9"/>
	<path fill="#2D3E50" d="M555.4,169.7c0,0-0.5-3.8,3.8-4c4.2-0.2,11.7,0,11.7,0s15.2,0.7,16.2,16.8v15c0,0-1.8,13.6-15.6,15.6h-10.6
		c0,0-4.7,0.2-5.4-4.5C554.7,203.8,555.4,169.7,555.4,169.7z"/>
	
		<rect x="634.7" y="209" transform="matrix(0.996 8.960941e-02 -8.960941e-02 0.996 22.2536 -56.7641)" fill="#FAD76B" width="17.2" height="20.9"/>
	<path fill="#2D3E50" d="M646.3,200.8c0,0-0.1-3.8,4.1-3.7c4.3,0.1,11.8,1.1,11.8,1.1s15.4,2.1,14.8,18.2l-1.3,14.9
		c0,0-3.4,13.9-17.3,14.3l-10.6-1c0,0-4.7-0.3-4.9-5C642.5,234.9,646.3,200.8,646.3,200.8z"/>
	<path fill="none" stroke="#2D3E50" stroke-width="5" stroke-miterlimit="10" d="M526.5,232v17.8c0,0,1.4,44.6-49.8,52.1
		c0,0-36.9,4.2-96.3-20.4s-125.2-26.6-125.2-26.6s-46.4-3.5-66.6,17.7s-14,44.3-6.3,57.2c7.7,12.9,32.6,24.9,32.6,24.9
		s14.5,7.2,35.3,6.2"/>
	<path fill="none" stroke="#2D3E50" stroke-width="5" stroke-miterlimit="10" d="M613.6,257.1c0,0-3.9,56.1-78.7,71.7
		c0,0-53,8.3-131.7-12.6s-99.5-25.6-123-25.6c-23.5,0-64.3-7-77.8,26.1c-7.8,39.5,49.1,49.1,57.8,41.7"/>
	<path fill="none" stroke="#2D3E50" stroke-width="5" stroke-miterlimit="10" d="M332,358.5h173c0,0,90.4-6.3,88.6,67.6
		c-1.8,74,52.7,63,80.6,63c27.9,0,38.8,4.8,38.8,4.8"/>
	<rect x="234.6" y="350" fill="#F4F1F0" width="102.8" height="18.5"/>
	<path fill="#F3F1EF" d="M548,172h-13.1c0,0-15.9,0.8-17.9,17.4v42.1c0,0-0.1,4.5,5.6,4.5h9.9c0,0,4.5,1,4-4.9l0.2-20.9
		c0,0-0.2-5.2,5.2-5.2h6.1V172z"/>
	<path fill="#F3F1EF" d="M638.9,203l-13.2-1.2c0,0-15.8-1.1-18.9,15.3L603,259c0,0-1,4.9,4.6,5.4l9.8,0.9c0,0,4.4,1.1,4.5-4.8
		l2.1-21c0,0,0.2-5.3,5.7-4.9l6.3,0.6L638.9,203z"/>
</g>
</svg>
