<?xml version="1.0" encoding="utf-8"?>
<!-- Generator: Adobe Illustrator 18.0.0, SVG Export Plug-In . SVG Version: 6.00 Build 0)  -->
<!DOCTYPE svg PUBLIC "-//W3C//DTD SVG 1.1//EN" "http://www.w3.org/Graphics/SVG/1.1/DTD/svg11.dtd">
<svg version="1.1" xmlns="http://www.w3.org/2000/svg" xmlns:xlink="http://www.w3.org/1999/xlink" x="0px" y="0px"
	 viewBox="0 0 1250 578.7" enable-background="new 0 0 1250 578.7" xml:space="preserve">
<g id="Layer_2">
	<rect fill="#897D68" width="1251" height="580.5"/>
	<g opacity="0.19">
		<g>
			<path fill="none" stroke="#FFFFFF" stroke-width="6" stroke-miterlimit="10" d="M441.8,197.5c0,0,2-1.8,5.8-4.7"/>
			<path fill="none" stroke="#FFFFFF" stroke-width="6" stroke-miterlimit="10" stroke-dasharray="15.3533,15.3533" d="M460.1,183.8
				c33.2-22.6,108.8-64,204.1-52.3c124.1,15.2,209.1,12.8,329.3,7.6"/>
			<path fill="none" stroke="#FFFFFF" stroke-width="6" stroke-miterlimit="10" d="M1001.1,138.7c2.5-0.1,5-0.2,7.5-0.3"/>
		</g>
	</g>
	<g opacity="0.19">
		<g>
			<path fill="none" stroke="#FFFFFF" stroke-width="6" stroke-miterlimit="10" d="M488.8,285.5c0,0,1.9-1.9,5.5-5"/>
			<path fill="none" stroke="#FFFFFF" stroke-width="6" stroke-miterlimit="10" stroke-dasharray="14.852,14.852" d="M506.1,271.3
				c28.7-20.7,92.4-55.7,185-44.4c124,15.1,129.1,14.8,242.7,9.7"/>
			<path fill="none" stroke="#FFFFFF" stroke-width="6" stroke-miterlimit="10" d="M941.2,236.3c2.4-0.1,4.9-0.2,7.5-0.3"/>
		</g>
	</g>
	<g opacity="0.19">
		<g>
			<path fill="none" stroke="#FFFFFF" stroke-width="6" stroke-miterlimit="10" d="M538.8,366.5c0,0,2-1.7,6-4.5"/>
			<path fill="none" stroke="#FFFFFF" stroke-width="6" stroke-miterlimit="10" stroke-dasharray="15.394,15.394" d="M557.9,353.9
				c29.2-16.6,91.1-42.5,181.4-31.4c38.6,4.7,63,8,81.6,10"/>
			<path fill="none" stroke="#FFFFFF" stroke-width="6" stroke-miterlimit="10" d="M828.6,333.3c2.6,0.3,5.1,0.5,7.5,0.7"/>
		</g>
	</g>
</g>
<g id="Layer_1">
	<path fill="#CCCCE4" d="M364.3,264.4c0,0-6.5-0.9-8.8,6.2l-39.3,132.1c0,0-3.6,9.5,2.5,17.8c0,0,3,5.2,11.1,6.2l96.2,0.1l0.1-1.7
		l-94.6-3c0,0-5.6,0.1-8.5-4.7c-3-4.7-2.5-6.8-1.4-11.7s36.8-130.5,36.8-130.5s2.4-6.3,5.7-7.3C367.3,266.9,364.3,264.4,364.3,264.4
		z"/>
	
		<linearGradient id="SVGID_1_" gradientUnits="userSpaceOnUse" x1="403.7894" y1="348.6037" x2="305.2252" y2="405.5097" gradientTransform="matrix(0.9993 3.693369e-02 -3.693369e-02 0.9993 13.9844 -23.4231)">
		<stop  offset="0" style="stop-color:#000000;stop-opacity:0.1"/>
		<stop  offset="1" style="stop-color:#000000;stop-opacity:0"/>
	</linearGradient>
	<path fill="url(#SVGID_1_)" d="M364.3,264.4c0,0-6.5-0.9-8.8,6.2l-39.3,132.1c0,0-3.6,9.5,2.5,17.8c0,0,3,5.2,11.1,6.2l96.2,0.1
		l0.1-1.7l-94.6-3c0,0-5.6,0.1-8.5-4.7c-3-4.7-2.5-6.8-1.4-11.7s36.8-130.5,36.8-130.5s2.4-6.3,5.7-7.3
		C367.3,266.9,364.3,264.4,364.3,264.4z"/>
	<g>
		
			<rect x="394.3" y="137.1" transform="matrix(0.9897 -0.1432 0.1432 0.9897 -35.3735 59.4578)" fill="#CCCCE4" width="2.4" height="276.8"/>
		
			<rect x="393.8" y="137.2" transform="matrix(-0.9897 0.1432 -0.1432 -0.9897 821.1689 457.3092)" fill="#14151A" width="0.6" height="242"/>
		<path fill="#CCCCE4" d="M374.5,138.7c0,0-12.8,30.7-15.2,82c-2.4,51.3,10.3,92.4,25,128.3c14.7,35.9,29.9,63.7,29.9,63.7
			L374.5,138.7z"/>
		
			<linearGradient id="SVGID_2_" gradientUnits="userSpaceOnUse" x1="468.7051" y1="329.6875" x2="313.497" y2="240.0781" gradientTransform="matrix(0.9993 3.693369e-02 -3.693369e-02 0.9993 13.9844 -23.4231)">
			<stop  offset="0" style="stop-color:#000000;stop-opacity:0.15"/>
			<stop  offset="0.9728" style="stop-color:#000000;stop-opacity:2.000000e-02"/>
			<stop  offset="1" style="stop-color:#000000;stop-opacity:0"/>
		</linearGradient>
		<path fill="url(#SVGID_2_)" d="M374.5,138.7c0,0-12.8,30.7-15.2,82c-2.4,51.3,10.3,92.4,25,128.3c14.7,35.9,29.9,63.7,29.9,63.7
			L374.5,138.7z"/>
	</g>
</g>
<g id="Layer_5">
	<path fill="#333333" d="M479.1,421c0,0-1-0.6-1.9-0.5c-0.8,0.2,0.7,3.5,0.7,3.5h1.2L479.1,421z"/>
	<g>
		
			<rect x="466.6" y="281.8" transform="matrix(0.9897 -0.1432 0.1432 0.9897 -45.851 70.54)" fill="#CCCCE4" width="1.2" height="144.1"/>
		
			<rect x="466.4" y="281.9" transform="matrix(-0.9897 0.1432 -0.1432 -0.9897 977.6691 619.3714)" fill="#14151A" width="0.3" height="126"/>
		<path fill="#CCCCE4" d="M456.3,282.7c0,0-1.3,4.3-0.6,12.6c0.6,8.3,15.3,110.4,16.9,116.8s4.4,13.2,4.4,13.2L456.3,282.7z"/>
		<linearGradient id="SVGID_3_" gradientUnits="userSpaceOnUse" x1="455.5065" y1="353.9772" x2="476.954" y2="353.9772">
			<stop  offset="0" style="stop-color:#000000;stop-opacity:5.000000e-02"/>
			<stop  offset="1" style="stop-color:#000000;stop-opacity:0"/>
		</linearGradient>
		<path fill="url(#SVGID_3_)" d="M456.3,282.7c0,0-1.3,4.3-0.6,12.6c0.6,8.3,15.3,110.4,16.9,116.8s4.4,13.2,4.4,13.2L456.3,282.7z"
			/>
	</g>
	<g>
		<path fill="#CCCCE4" d="M478,425.1c0,0,1.3,1.3,3.5,1.7l142.8,0.2c1.9-0.3,3.5-1,4.5-2H478"/>
		<linearGradient id="SVGID_4_" gradientUnits="userSpaceOnUse" x1="477.9627" y1="425.9998" x2="628.6543" y2="425.9998">
			<stop  offset="0" style="stop-color:#000000;stop-opacity:5.000000e-02"/>
			<stop  offset="1" style="stop-color:#000000;stop-opacity:0"/>
		</linearGradient>
		<path fill="url(#SVGID_4_)" d="M478,425.1c0,0,1.3,1.3,3.5,1.7l142.8,0.2c1.9-0.3,3.5-1,4.5-2H478"/>
		<rect x="478.2" y="421" fill="#CCCCE4" width="150.5" height="4.6"/>
	</g>
</g>
<g id="Me">
	<path fill="#E4AB76" d="M780.4,168.8c0,0-13.7-2.2-21.9,3.3c0,0-5.6,8.1-7.2,14.9c0,0-0.1,2.9-1.4,5.8c-1.3,2.9-3.8,7.3-3.7,10
		c0,0,5,5,4.3,11.8l-11.6,18.6c0,0-3,6.2,2,6.6c5,0.4,7.8,3,7.8,3l-2.9,6.3c0,0,0,4.3,4.6,6.4c0,0-2.9,3-0.5,6.7c0,0,3.2,0,5,2.1
		c0,0,0.9,0.7,0.9,2.2c0,1.5-0.1,7.1,4,8.4c0,0,7.6,5.4,29.5-3.4l1.9,5.2c0,0,1.4,5.5,4.7,5.9c0,0,0.7-0.3,2.3,3.7
		c1.6,4,2.4,7.8,2.4,7.8l1.5,5.4l0.9,3.3l6,2.3l14.5-0.8L847,278l-3.4-5.5c0,0-9.9-5.5-8.2-31.9s-3.5-57.1-3.5-57.1l-31.2-15.2
		L780.4,168.8z"/>
	<path fill="#2B180D" d="M771.9,148.2c0,0,9.4-4.9,21.5-0.9c0,0,11.8-1.6,19,2.2c0,0,14.5,5.3,18.1,11.4c0,0,20.9,22.4,14.3,38
		c0,0,1.4,4.1-0.2,7c-1.6,3,1.4,3.1,1.4,3.1s2.7-5.2,7.7-5.2s9.6,0,12.7,5.2c3.1,5.2,3.5,7.8,0.7,16.2c-2.9,8.3-12.6,7.8-18,4
		c0,0-1.3-1.7-5.2-4.8c0,0-2.2-1.9-3.1,2.3c0,0,0,3.7-1.1,5.8c0,0-0.1,8.3-8.9,15c-8.8,6.7-25.1-6.9-25.1-6.9s-0.9-1.3,0.6-1.2
		c0,0,0.2,0.8,2.5,0.9s4.6,0.1,7.2-2.5c2.6-2.6,5.4-5.6,7.8-13.2c2.4-7.6,0.8-14.3-2.9-15.6c-3.7-1.3-7.5-3.3-17.1,7.7
		c0,0-2.3,2.5-5.3,1.5c-3-1-6.6-2.5-9.6-14.7c0,0-0.6-3.4-3.3-3.4s-5.5-1.9-5.9-7.9c-0.4-6-1.4-10.7-4.9-15.2s-3.8-4.9-7.8-6.9
		c0,0-2.7-0.5-4.9,0.6c-2.1,1.1-3.9,1.3-3.9,1.3s-5.9-3.4-4.9-10.7c1-7.2,4.6-9.6,5.7-10.8S765.6,146.3,771.9,148.2z"/>
	<linearGradient id="SVGID_5_" gradientUnits="userSpaceOnUse" x1="789.2015" y1="270.4556" x2="846.9607" y2="270.4556">
		<stop  offset="0" style="stop-color:#000000;stop-opacity:0.1"/>
		<stop  offset="1" style="stop-color:#000000;stop-opacity:0"/>
	</linearGradient>
	<path fill="url(#SVGID_5_)" d="M843.6,272.5c0,0-9.9-5.5-8.2-31.9c0.1-2.1-6.2-9.7-12.3,0.6c-9.5,9.5-9.5,18.9-33.9,30.2l1.9,5.2
		c0,0,1.4,5.5,4.7,5.9c0,0,0.7-0.3,2.3,3.7c1.6,4,2.4,7.8,2.4,7.8l2.4,8.7l0,0l6,2.3l14.5-0.8L847,278L843.6,272.5z"/>
	<path fill="#2B180D" d="M746.7,201.4c0,0,8.7-3.9,12.4-3.4c0,0,2.9,1.2,4.2,2.1l2.7,2.7l-4.9-0.7c0,0-3.5-0.1-5.3,0.4
		c-1.8,0.5-7.9,3.4-7.9,3.4l-1.9-2.2c0,0-0.4-0.7,0.1-1.4C746.5,201.7,746.7,201.4,746.7,201.4z"/>
	<path fill="#E4AB76" d="M753.6,373.8c0,0-8.2,11.6-13.1,18.6c-4.9,7.1-17.7,5.4-17.7,5.4c-8.8-1.2-30.9-0.6-48.8,2.9
		c-30,5.6-50.2,3.9-50.2,3.9l-6.7-6.8c0,0-5.6-4.8-14.9,0c-9.2,4.8-20,11.3-20,11.3s-4.1,4.5,0,5.1c4.1,0.6,5.7,0,5.7,0
		s-2.6,9.9,1.9,11.8c4.5,1.9,8.5,4.9,8.5,4.9l148.5-4.2c0,0,14.6-0.1,23-19.9c8.4-19.7-6.5-30.1-6.5-30.1L753.6,373.8z"/>
	<polygon fill="#2F333F" points="782.5,326 742.3,382.6 783.6,393.8 	"/>
	<path fill="#3E4454" d="M802.3,300.3c0,0,7.4-1.5,20.6-12.1c13.2-10.7,22.8-14.5,22.8-14.5l0,0l18.7,25.1c0,0,25.3,56.4,27.5,62
		c2.2,5.6,20.8,102.3,20.8,102.3l-156.1,2.2c0,0,14.9-139.1,32.6-154.5L802.3,300.3z"/>
	<polygon fill="#E4AB76" points="811.6,390.1 847.1,385.3 847.2,464 816.1,464.5 	"/>
	<path fill="#4C3520" d="M616.7,372.1c0,0,4.4-2.2,5,2.6l-23.8,43.8l-8,8.9l3-11.4L616.7,372.1z"/>
	<rect x="591.4" y="408.5" fill="#E4AB76" width="14.4" height="7.5"/>
	<path fill="#3A3F4E" d="M805,333.3c0,0,18.7-25.3,51.2-5.8l6.7,57.8l-57.9,8.5V333.3z"/>
</g>
<g id="Layer_6">
	<path fill="#4D323F" d="M887.9,444.6c0,0,3.2-56.4,8.5-73.5c5.3-17.1,5.3-30,18.2-33.2c12.8-3.2,25.6,5,25.6,5s2.6,2.5,1.4,5.8
		s-12,39-14.6,75.5c-2.6,36.5-1.6,47.9-1.6,47.9H888L887.9,444.6z"/>
</g>
<g id="Layer_4">
	<rect x="246.4" y="427.1" fill="#333333" width="504.7" height="24.3"/>
</g>
</svg>
