<?xml version="1.0" encoding="utf-8"?>
<!-- Generator: Adobe Illustrator 18.0.0, SVG Export Plug-In . SVG Version: 6.00 Build 0)  -->
<!DOCTYPE svg PUBLIC "-//W3C//DTD SVG 1.1//EN" "http://www.w3.org/Graphics/SVG/1.1/DTD/svg11.dtd">
<svg version="1.1" id="Layer_2" xmlns="http://www.w3.org/2000/svg" xmlns:xlink="http://www.w3.org/1999/xlink" x="0px" y="0px"
	 viewBox="0 0 1250 578.7" enable-background="new 0 0 1250 578.7" xml:space="preserve">
<rect x="-0.5" y="-0.9" fill="#EC5744" width="1251" height="580.5"/>
<path fill="#583A14" d="M1015.2,285.8c0,0,10.3-3.7,14-42.6c5.8-61-13.8-100.7-13.8-100.7s-28.1-50.2-80.8-64.9
	c-52.6-14.7-97.9,0-97.9,0s-55.1,12.2-85.7,67.3c-23.6,42.4-19.5,77.4-16.4,106.1c0.9,8.6,11.4,40,11.4,40"/>
<path fill="#D0AC6E" d="M1016.6,287.9c0,0,23.8,3.6,19.4,34.2c-5.1,22.9-30.7,27.3-30.7,27.3"/>
<path fill="#D0AC6E" d="M747.4,291.1c0,0-25.4,3.6-20.6,34.2c5.5,22.9,32.6,27.3,32.6,27.3"/>
<path fill="#DDB776" d="M747.4,297.1c-3.9-52.1,0-92.2,14.7-102c0,0,11-8.6,18.4-10.4c7.3-1.8,61.2-13.9,78.3-0.5
	c0,0,20.8,13.3,49,0.5c0,0,5-5.1,35.5-5.9c30.5-0.8,65,13.6,67.3,18.8c0,0,4.9,5.5,4.9,40.1c0,0,1.2,61.5,0,67.6
	c0,0-6.1,73.4-44.1,117.5c-37.9,44.1-72.5,45.3-87.5,45.3s-65.4-5.5-92.4-45.6C761.3,377.8,751.3,349.2,747.4,297.1z"/>
<path opacity="0.1" fill="#0D1218" d="M1025,298h-8c0,0,0.7,12.8-2,27.5c-2.6,14.7-12.1,26.8-12.1,26.8s-4.9,7.7-18.2,11
	c-13.3,3.2-22.1,2.6-22.1,2.6l-6.6,0c0,0-14.3,0.7-25.6-6.2c-11.3-6.9-19.9-19.6-22-22.8c-2.1-3.2-8.8-13.1-9.9-18.8
	c-1.1-5.7-5.2-21.6-12.7-21.2c-7.5-0.5-11.6,15.5-12.7,21.2c-1.1,5.7-7.7,15.5-9.9,18.8c-2.1,3.2-10.7,15.9-22,22.8
	c-11.3,6.9-25.6,6.2-25.6,6.2l-6.6,0c0,0-8.7,0.6-22.1-2.6c-13.3-3.2-18.2-11-18.2-11s-9.5-12-12.1-26.7c-2.6-14.7-2-27.5-2-27.5h-8
	c-2.3-10-1.7-25.6-1.7-25.6c6.7-0.7,19.3-3.6,19.3-3.6c15-3.5,27.9-5.6,44.7-6.2c16.9-0.6,49.2,5.2,57.1,9.5
	c8,4.3,19.8,3.7,19.8,3.7s11.8,0.6,19.7-3.7c8-4.3,40.2-10.2,57.1-9.6c16.9,0.6,29.7,2.7,44.7,6.2c0,0,12.6,3,19.3,3.7
	C1026.7,272.4,1027.3,288,1025,298z"/>
<path fill="#F4C214" d="M1020.4,293h-8c0,0,0.7,13-2,27.8s-12.1,26.9-12.1,26.9s-4.9,7.8-18.2,11c-13.3,3.2-22.1,2.6-22.1,2.6
	l-6.6,0c0,0-14.3,0.7-25.6-6.2c-11.3-6.9-19.9-19.6-22-22.8c-2.1-3.2-8.8-13.1-9.9-18.8c-1.1-5.7-5.2-21.6-12.7-21.2
	c-7.5-0.5-11.6,15.5-12.7,21.2c-1.1,5.7-7.7,15.5-9.9,18.8c-2.1,3.2-10.7,15.9-22,22.8c-11.3,6.9-25.6,6.2-25.6,6.2l-6.6,0
	c0,0-8.7,0.6-22.1-2.6c-13.3-3.2-18.2-11-18.2-11s-9.5-12.3-12.1-27s-2-27.8-2-27.8h-8c-2.3-9-1.7-25.4-1.7-25.4
	c6.7-0.7,19.3-3.5,19.3-3.5c15-3.5,27.9-5.6,44.7-6.2c16.9-0.6,49.2,5.2,57.1,9.6c8,4.3,19.8,3.7,19.8,3.7s11.8,0.6,19.7-3.7
	c8-4.3,40.2-10.2,57.1-9.6c16.9,0.6,29.7,2.7,44.7,6.2c0,0,12.6,2.7,19.3,3.4C1022.2,267.6,1022.7,284,1020.4,293z"/>
<path fill="#34495E" d="M783.8,265.4c0,0,21.3-2.5,43.7,0c22.4,2.5,35.3,11.2,35.1,26.4c-0.2,15.2,1.4,18.5-6.3,31.2
	c-7.9,13.1-15,21.7-24.9,27.2c-17.3,11.4-46.5,3.5-52.9,0c-6.4-3.5-15.2-12.5-18.8-22.9c-3.6-10.4-7.6-27.9-3.3-43.4
	c0,0,1.5-5.9,7.7-10.8C767.1,271,767.8,268.7,783.8,265.4z"/>
<path fill="#34495E" d="M978.6,265.4c0,0-21.3-2.5-43.7,0c-22.4,2.5-35.3,11.2-35.1,26.4c0.2,15.2-1.4,18.5,6.3,31.2
	c7.9,13.1,15,21.7,24.9,27.2c17.3,11.4,46.5,3.5,52.9,0c6.4-3.5,15.2-12.5,18.8-22.9c3.6-10.4,7.6-27.9,3.3-43.4
	c0,0-1.5-5.9-7.7-10.8C995.3,271,994.6,268.7,978.6,265.4z"/>
<path opacity="0.17" d="M831.4,350.2c9.9-5.5,17-14.1,24.9-27.2c7.6-12.6,6.1-16,6.3-31.2c0-4.5-1.1-8.4-3.2-11.8l-89.5,63.3
	c2.9,3,6,5.4,8.6,6.9C784.9,353.7,814.2,361.6,831.4,350.2z"/>
<path opacity="0.1" d="M434,247v-20h-40v14.7c0,0,0.4,0,0.3,0c-3.3,0-5.7,2.7-5.7,6s2.2,6,5.5,6c0.1,0-0.1,0-0.1,0V271h-19v45h19v18
	h41.5H583v-87H434z"/>
<rect x="423.6" y="241.4" fill="#6670D9" width="155.4" height="86.6"/>
<circle fill="#BF004A" cx="389.9" cy="242.7" r="6"/>
<rect x="390.2" y="220.7" fill="#6670D9" width="40.2" height="107.3"/>
<rect x="370.7" y="265.3" fill="#E0E2F7" width="19.5" height="44.8"/>
<path fill="none" stroke="#FFFFFF" stroke-width="5" stroke-miterlimit="10" d="M334.9,457.9"/>
<path opacity="0.8" fill="none" stroke="#FFFFFF" stroke-width="5" stroke-miterlimit="10" d="M321.4,237.6
	c-27.4,27.4-27.4,71.9,0,99.3"/>
<path opacity="0.8" fill="none" stroke="#FFFFFF" stroke-width="5" stroke-miterlimit="10" d="M288.4,204.7
	c-45.7,45.7-45.7,119.5,0,165.2"/>
<path opacity="0.8" fill="none" stroke="#FFFFFF" stroke-width="5" stroke-miterlimit="10" d="M256.2,172.5
	c-63.5,63.5-63.5,166.2,0,229.6"/>
<path opacity="0.17" d="M983.9,350.2c6.4-3.5,15.2-12.5,18.8-22.9c3.6-10.4,7.6-27.9,3.3-43.4c0,0-1.3-5.3-6.8-10l-85.5,60.5
	c5.2,6.9,10.6,12.1,17.3,15.8C948.2,361.6,977.5,353.7,983.9,350.2z"/>
</svg>
