<?xml version="1.0" encoding="utf-8"?>
<!-- Generator: Adobe Illustrator 18.0.0, SVG Export Plug-In . SVG Version: 6.00 Build 0)  -->
<!DOCTYPE svg PUBLIC "-//W3C//DTD SVG 1.1//EN" "http://www.w3.org/Graphics/SVG/1.1/DTD/svg11.dtd">
<svg version="1.1" id="Layer_1" xmlns="http://www.w3.org/2000/svg" xmlns:xlink="http://www.w3.org/1999/xlink" x="0px" y="0px"
	 viewBox="0 0 500 500" enable-background="new 0 0 500 500" xml:space="preserve">
<rect fill="#F48AA0" width="500" height="500"/>
<path opacity="0.1" d="M390,455.5l-6.4,0c-3.2-1.4-15.4-7.7-15.4-22.6c0-15.3,12.5-20.9,15.3-21.9h6.5V145h-45v-1h-12v1H162v1.5
	c-5-0.3-27,0-32,25.6v92.2c0,0.3-0.3,0.6-0.4,0.9l0.1,53.1c0,0,0.3-0.2,0.3-0.5v120.8c0,0,2.7,27.4,28.5,27.4H185v26.3l5.6-12.5
	l5.4,12.5V466h136.7l0,0h11.8l0,0H390V455.5z M162,410h-0.1l0.1-14.8V410z"/>
<path fill="#EFC635" d="M374.9,404.4c0,0-16,4.8-16,22s16,22.9,16,22.9l-224.8,1.2c0,0-21.7-2.1-22.3-24.5
	c-0.6-22.4,25-21.5,25-21.5L374.9,404.4z"/>
<line fill="none" stroke="#7A620F" stroke-miterlimit="10" x1="129" y1="429.5" x2="359" y2="429.5"/>
<path fill="#C79B05" d="M128.2,409.9l0.3,14.8c-1.5-0.7,3.4-14.7,29.4-14.7h207.5c4.5-4,9.5-5.9,9.5-5.9l-223.6-1.2
	C151.2,402.9,135.6,405.9,128.2,409.9z"/>
<path fill="#518892" d="M153.5,140c0,0-26.5-3.7-33.5,25.5V432c0,0,3.5,26,29.3,26H380v-9.1l-230,1.4c0,0-19.4-2.4-21.4-21.9
	c-1.1-15.8,10-22.5,23.8-23.9L153.5,140z"/>
<rect x="152.8" y="139.1" fill="#5F9EAF" width="227.3" height="265.6"/>
<path fill="#A74757" d="M119.9,311.7c0,0,12.1-20.5,32.1-20.5v-57.1c0,0-23.1,2.3-32.6,24.5L119.9,311.7z"/>
<rect x="152.3" y="234.1" fill="#BB5B5A" width="228.5" height="57"/>
<rect x="323.6" y="137" fill="#1F3455" width="11.7" height="321.9"/>
<polygon fill="#C25A58" points="175,431 175,485.7 181.1,473.2 187,485.7 187,431 "/>
</svg>
