<?xml version="1.0" encoding="utf-8"?>
<!-- Generator: Adobe Illustrator 18.0.0, SVG Export Plug-In . SVG Version: 6.00 Build 0)  -->
<!DOCTYPE svg PUBLIC "-//W3C//DTD SVG 1.1//EN" "http://www.w3.org/Graphics/SVG/1.1/DTD/svg11.dtd">
<svg version="1.1" id="Layer_1" xmlns="http://www.w3.org/2000/svg" xmlns:xlink="http://www.w3.org/1999/xlink" x="0px" y="0px"
	 viewBox="0 0 1250 578.7" enable-background="new 0 0 1250 578.7" xml:space="preserve">
<rect fill="#07396B" width="1250" height="578.7"/>
<path fill="#3B9F43" d="M390.2,68.9c-47.3-18.2-100.5,5.3-118.8,52.7c-18.2,47.3,5.3,100.5,52.7,118.8c3.9,1.5,7.9,2.7,11.9,3.7
	l23.1-85.1l25.9,83.2c25.7-8.2,47.5-27.4,57.9-54.5C461.1,140.3,437.5,87.1,390.2,68.9z"/>
<path fill="#EBE9AB" d="M359,158.9l23.1,74.2c30.4-9.6,53.6-36.8,56.4-70.6c3.7-44.6-29.4-83.9-74.1-87.6
	c-44.6-3.7-83.9,29.4-87.6,74.1c-3.4,40.4,23.5,76.4,61.7,85.6L359,158.9z"/>
<path fill="#C1CC40" d="M380.3,96.3l-18.5,48.9c0,0,0.2,4.2-2.8,3.9v0c-3,0.4-4.7-3.9-4.7-3.9l-20.2-48.9c-3.7-9-1.2-10-1.2-10
	c8.7-4.6,17-5.6,23.9-5.2c6.9-0.4,15.4,0.5,24.3,5.1C381.2,86.3,383.9,87.3,380.3,96.3z"/>
<path fill="#C1CC40" d="M327.2,98.4l24,46.8c0,0,2.8,3.1,0.7,5l0,0c-1.5,2.4-5.7,0.6-5.7,0.6l-49.8-17.6c-9.2-3.3-8.2-5.9-8.2-5.9
	c2.4-9.6,7.1-16.5,12-21.4c4.3-5.5,10.6-11.2,20-14.8C320.3,91,322.9,89.7,327.2,98.4z"/>
<path fill="#C1CC40" d="M296.3,135.8l50,16.8c0,0,4.2,0.4,4,3.4h0c0.6,3-3.6,4-3.6,4l-47.8,22.2c-8.8,4.1-9.9,1.5-9.9,1.5
	c-5.1-8.5-6.6-16.8-6.6-23.7c-0.8-6.9-0.3-15.4,3.8-24.6C286.2,135.5,287,132.7,296.3,135.8z"/>
<path fill="#C1CC40" d="M302.4,187.4l45.2-26.9c0,0,2.9-3,5-1l0,0c2.5,1.4,0.9,5.6,0.9,5.6l-14.4,50.7c-2.7,9.4-5.3,8.5-5.3,8.5
	c-9.7-1.7-17-6.1-22.2-10.6c-5.8-3.9-11.9-9.9-16.1-19C295.5,194.8,294,192.3,302.4,187.4z"/>
<path fill="#C1CC40" d="M382.6,215.8l-18.7-49.1c0,0-2.4-3.4-0.2-5.1l0,0c1.8-2.2,5.7,0.1,5.7,0.1l47.5,23c8.8,4.3,7.5,6.7,7.5,6.7
	c-3.4,9.3-8.9,15.6-14.3,20c-4.8,5-11.8,9.9-21.5,12.5C388.7,223.8,386,224.9,382.6,215.8z"/>
<path fill="#C1CC40" d="M418.3,181.7l-47.9-22c0,0-4.2,0.3-3.7-3.7h0c-0.3-3,4.1-3.7,4.1-3.7l49.9-17c9.2-3.1,10-0.4,10-0.4
	c4.1,9,4.7,17.4,3.9,24.3c0.1,7-1.4,15.4-6.4,24C428.2,183.1,427.1,185.8,418.3,181.7z"/>
<path fill="#C1CC40" d="M417,131.1L368.8,152c0,0-3.3,2.6-5.1,0.4l0,0c-2.3-1.7-0.2-5.7-0.2-5.7l20.7-48.5c3.8-8.9,6.4-7.8,6.4-7.8
	c9.4,3,16,8.2,20.6,13.3c5.2,4.6,10.5,11.3,13.5,20.9C424.7,124.7,425.9,127.3,417,131.1z"/>
<path fill="#FFFFFF" d="M575.4,252.3l-217.1-83.7c0,0-15.3,147.8-54.3,265.6c0,0-20,29,6.4,34.4l49.1,19.5l49.8,19.1
	c23.2,13.7,28.5-21.6,28.5-21.6C485.1,379.2,575.4,252.3,575.4,252.3z M383.3,430c-53.7-24.6-50.8-59.5-43.2-89.3
	c7.5-29.7,30.3-156.3,30.3-156.3l93.7,36l94,36.4c0,0-68.2,109-82.6,136.1C461.1,420.1,439.6,447.8,383.3,430z"/>
<path opacity="0.4" fill="#FFFFFF" d="M558,256.8c0,0-68.2,109-82.6,136.1c-14.4,27.1-35.8,54.9-92.2,37.1
	c-53.7-24.6-50.8-59.5-43.2-89.3c7.5-29.7,30.3-156.3,30.3-156.3l93.7,36L558,256.8z"/>
<path fill="#F8BF23" d="M448.2,269.7c-39.5-5.4-63.8-14.6-87-35.2c-7.2,38.9-16.8,88.9-21.1,106.2c-7.6,29.8-10.5,64.7,43.2,89.3
	c56.3,17.8,77.8-9.9,92.2-37.1c8.4-15.9,35.5-60.1,56.3-93.9C507.3,281.2,487.9,275.1,448.2,269.7z"/>
<path opacity="0.17" d="M467.8,210.9L360.7,488.6l49,18.8c23.2,13.7,28.2-21.6,28.2-21.6c47.4-106.5,137.4-233.5,137.4-233.5
	L467.8,210.9z"/>
<path fill="#FFFFFF" d="M880.4,167.2l-215.6,87.3c0,0,89.9,118.4,141.9,231c0,0,5.2,34.8,28.2,20.7l49.2-19.3l49.4-20.1
	c26.3-5.9,6.1-35.2,6.1-35.2C901.2,321.5,880.4,167.2,880.4,167.2z M861.6,428.2c-56,18.8-77.8-8.7-92.6-35.6
	c-14.8-26.9-84.7-134.8-84.7-134.8l93-37.8l93.4-37.7c0,0,24.7,126.2,32.8,155.8C911.6,367.8,914.9,402.7,861.6,428.2z"/>
<path opacity="0.4" fill="#FFFFFF" d="M870.8,182.3c0,0,24.7,126.2,32.8,155.8c8,29.6,11.4,64.5-41.9,90
	c-56,18.8-77.8-8.7-92.6-35.6c-14.8-26.9-84.7-134.8-84.7-134.8l93-37.8L870.8,182.3z"/>
<path fill="#F8BF23" d="M799.4,266.8c-32.5,23.1-56.6,33-87.6,33.8c21.3,33.3,48.5,76.4,57.2,92c14.8,26.9,36.6,54.3,92.6,35.6
	c53.3-25.5,50-60.4,41.9-90c-4.7-17.4-15.2-68.1-23.1-107C850.4,234.8,832.1,243.6,799.4,266.8z"/>
<path opacity="0.17" d="M773.5,210.5l111.7,275.9l48.6-19.8c26.3-5.9,5.8-35.1,5.8-35.1c-38.2-110.1-59.3-264.3-59.3-264.3
	L773.5,210.5z"/>
</svg>
