<?xml version="1.0" encoding="utf-8"?>
<!-- Generator: Adobe Illustrator 18.0.0, SVG Export Plug-In . SVG Version: 6.00 Build 0)  -->
<!DOCTYPE svg PUBLIC "-//W3C//DTD SVG 1.1//EN" "http://www.w3.org/Graphics/SVG/1.1/DTD/svg11.dtd">
<svg version="1.1" id="Layer_1" xmlns="http://www.w3.org/2000/svg" xmlns:xlink="http://www.w3.org/1999/xlink" x="0px" y="0px"
	 viewBox="0 0 500 500" enable-background="new 0 0 500 500" xml:space="preserve">
<rect fill="#004B7F" width="500" height="500"/>
<path fill="#FFDC2B" d="M344.1,501.5c-0.8,1.5-89.8-2.4-99-1.5c-9.3-0.9-98,3-98.8,1.5c-13.9,1-9.5-25.5-9.5-25.5
	c12.4-69.2,19.6-269.4,19.6-269.4l88.7,0.2l88.9-0.2c0,0,7.3,200.2,19.7,269.4C353.7,476.1,358,502.6,344.1,501.5z"/>
<path fill="#FBDC28" d="M331.2,269.4c0,0,32.1-26.2,57.7,0c25.6,26.2,0,83.4-13.9,92.7c0,0-54.5,55-87.6,64.8s43.8,0,43.8,0
	s44-27.7,66.7-64.6c22.7-36.9,20.1-67.3,12.6-86.4c-7.6-19-21.3-41.3-59.3-33.7s-37.2,12.6-37.2,12.6L331.2,269.4z"/>
<path fill="#6D3804" d="M312.5,455.9c0,0-39.1-8.2-67.4-8.1s-67.4,8.1-67.4,8.1c-23,0.7-16.2-34.1-16.2-34.1
	c3-37.1,4.4-206.9,4.4-206.9l79.2-0.1l79.2,0.1c0,0,1.4,169.9,4.4,206.9C328.8,421.8,335.5,456.7,312.5,455.9z"/>
<path fill="#F5F4E2" d="M165.3,278h159.8c-0.5-36-0.7-63.3-0.7-63.3l-79.2,0l-79.2,0C166,214.7,165.8,242,165.3,278z"/>
<path opacity="0.22" fill="#2A2100" d="M334.4,206.7l-88.4,0.2v293.1c9-0.9,97.7,3,98.5,1.5c13.9,1,9.6-25.5,9.6-25.5
	C341.7,406.9,334.4,206.7,334.4,206.7z"/>
<path fill="#542601" d="M213.8,320.8h-3.1c-2.9,0-5.2-2.3-5.2-5.2v-3.1c0-2.9,2.3-5.2,5.2-5.2h3.1c2.9,0,5.2,2.3,5.2,5.2v3.1
	C219,318.5,216.6,320.8,213.8,320.8z"/>
<path fill="#542601" d="M227.7,365.8h-3.1c-2.9,0-5.2-2.3-5.2-5.2v-3.1c0-2.9,2.3-5.2,5.2-5.2h3.1c2.9,0,5.2,2.3,5.2,5.2v3.1
	C232.8,363.4,230.5,365.8,227.7,365.8z"/>
<path fill="#542601" d="M215.1,423.5H212c-2.9,0-5.2-2.3-5.2-5.2v-3.1c0-2.9,2.3-5.2,5.2-5.2h3.1c2.9,0,5.2,2.3,5.2,5.2v3.1
	C220.3,421.2,218,423.5,215.1,423.5z"/>
<path fill="#542601" d="M193.1,384.7H190c-2.9,0-5.2-2.3-5.2-5.2v-3.1c0-2.9,2.3-5.2,5.2-5.2h3.1c2.9,0,5.2,2.3,5.2,5.2v3.1
	C198.3,382.4,196,384.7,193.1,384.7z"/>
<path fill="#6D3802" d="M274.1,382.6H271c-2.9,0-5.2-2.3-5.2-5.2v-3.1c0-2.9,2.3-5.2,5.2-5.2h3.1c2.9,0,5.2,2.3,5.2,5.2v3.1
	C279.3,380.3,276.9,382.6,274.1,382.6z"/>
<path fill="#6D3802" d="M304,436h-3.1c-2.9,0-5.2-2.3-5.2-5.2v-3.1c0-2.9,2.3-5.2,5.2-5.2h3.1c2.9,0,5.2,2.3,5.2,5.2v3.1
	C309.2,433.7,306.9,436,304,436z"/>
<path fill="#6D3802" d="M301.4,356.6h-3.1c-2.9,0-5.2-2.3-5.2-5.2v-3.1c0-2.9,2.3-5.2,5.2-5.2h3.1c2.9,0,5.2,2.3,5.2,5.2v3.1
	C306.6,354.3,304.3,356.6,301.4,356.6z"/>
<path fill="#6D3802" d="M275.4,317.6h-3.1c-2.9,0-5.2-2.3-5.2-5.2v-3.1c0-2.9,2.3-5.2,5.2-5.2h3.1c2.9,0,5.2,2.3,5.2,5.2v3.1
	C280.6,315.3,278.2,317.6,275.4,317.6z"/>
<path fill="#EFEBD0" d="M154.3,193.9c0,0-46.2-1.1-41.3,42.4c0,0,4.9,23.9,30.5,23.4c0,0-3.3,20.5,19,20.1c0,0,19-3.7,18.5-16.8
	c0,0,22.8,5.3,29.4-15c0,0,22.3-7.3,22.8-22.5c0,0,17.9,11.4,31.5,1.6c0,0,38.1,45.7,68-7.1c0,0,35.8,5.4,35.3-30.5
	c0,0-0.5-8.7-7.6-16.9c-7.1-8.2-26.7-14.7-38.6,0c0,0-39.4-17.9-54,12c0,0-20-14.1-35.2,4.9c0,0-16.8-28.3-42.1-25.3
	S151.6,190.1,154.3,193.9z"/>
<path fill="#EFEBD0" d="M158.5,328.4h-8.9c-6.6,0-12-5.4-12-12V297c0-6.6,5.4-12,12-12h8.9c6.6,0,12,5.4,12,12v19.4
	C170.5,323,165.1,328.4,158.5,328.4z"/>
<path fill="#E4DFBF" d="M321.9,172.7c0,0-39.3-17.9-53.9,12c0,0-11-7.4-22-4.3v50c6,1.2,12.7,1.1,18.9-3.3c0,0,38,45.7,67.9-7.1
	c0,0,35.7,5.4,35.3-30.5c0,0-0.5-8.7-7.6-16.9C353.4,164.6,333.8,158,321.9,172.7z"/>
</svg>
