<?xml version="1.0" encoding="utf-8"?>
<!-- Generator: Adobe Illustrator 18.0.0, SVG Export Plug-In . SVG Version: 6.00 Build 0)  -->
<!DOCTYPE svg PUBLIC "-//W3C//DTD SVG 1.1//EN" "http://www.w3.org/Graphics/SVG/1.1/DTD/svg11.dtd">
<svg version="1.1" id="Layer_1" xmlns="http://www.w3.org/2000/svg" xmlns:xlink="http://www.w3.org/1999/xlink" x="0px" y="0px"
	 viewBox="0 0 500 500" enable-background="new 0 0 500 500" xml:space="preserve">
<rect fill="#1C2321" width="500" height="500"/>
<g>
	<path fill="#C22026" d="M304.3,345.8c-2.8,9.5-9.3,13.9-17.4,15.9c-15.9,3.9-31.5,2.4-46.2-5.1c-3-1.5-4.8-1.6-7.4,0.7
		c-6.4,5.8-14.4,9.1-22.6,11.5c-17.3,5-34.9,7.4-52.7,3c-2.8-0.7-5.2-0.6-7.5,1.2c-0.5,0.4-1.1,0.8-1.8,0.9
		c-20,5.5-36.1,18.9-54.5,27.7c-3.6,1.7-7.1,2.6-11.1,1.7c0-2,1.7-1.9,2.8-2.4c11.7-5.5,22.7-11.8,31.6-21.5
		c5.1-5.6,11.7-9.3,18.7-12.2c3-1.3,4.4-2.3,0.8-4.7c-25.9-17.2-29.4-47.5-13.6-72.6c7.1-11.3,13.9-22.8,17.1-35.9
		c1.7-7.2,2.5-14.4,0.4-21.7c-0.4-1.3-1.2-2.8,0-4.6c4.1,4.6,6.7,9.9,9,15.3c3.9,9.1,5.8,18.7,7.1,28.5c0.9,7.1,2,14.2,4.6,20.9
		c3.8,9.4,10.6,11.4,19,5.6c10.4-7.1,13-17.1,10.8-28.9c-1.2-6.2-2.9-12.3-5.3-18.2c-5.3-13-4.7-25.9-0.4-39.1
		c6.3-19.4,17.9-36,27.7-53.6c0.1-0.2,0.6-0.2,1.4-0.5c-0.6,4.1-1.2,8-1.8,11.9c-1.3,8.6-2,17.2-1,25.9c1.5,13.7,7.8,24.1,20.4,30.6
		c14.6,7.5,28.2,16.5,38.2,30c9.1,12.3,13,26.1,11.7,41.3c-0.5,5.5,0.1,5.9,5.4,4.2c8.3-2.6,13.4-8.4,15.9-16.6
		c3.3-10.6,1.9-21.1-0.1-31.6c-1.2-6.1-2.7-12-3.9-18.1c-2.9-14.6,3.3-26.1,12-36.9c1.4,1.2,0.9,2.3,0.7,3.1c-3,13,1.7,23.9,9,34.2
		c7.3,10.4,17.1,18.7,25.7,27.9c5.7,6.1,10.9,12.6,15.2,19.8c11.3,19.2,11.6,39.5,5.6,60.3c-1.4,4.8-4.1,9.1-7.4,12.9
		c-2,2.3-2.3,3.6,0.9,5.1c7.3,3.2,13.2,8.3,18.6,14c9.9,10.4,22.5,17,34.7,24.2c1.4,0.8,3.2,1.1,4.2,3.1c-2.9,0.8-5.5,0.9-8-0.6
		c-13.7-8.2-27.7-15.8-40.4-25.7c-7.8-6-16.8-11.7-28-11.7c-12.3,0-22.9-5.1-31.9-13.6C308.7,349.8,306.7,348.1,304.3,345.8z
		 M149.5,359.7c2,0.3,2.7-1,3.7-1.8c7-5.6,14.8-9.6,23.4-12c18.6-5,37-3.6,55.2,1.6c6.1,1.7,6.8,1.2,7-5.1c0-1,0-2-0.2-3
		c-1.8-11.6-10.2-17-20.2-19.6c-15.5-4-30.1,0-43.9,7c-8.8,4.5-15.6,11.4-20.4,20C151.9,350.9,149.8,355,149.5,359.7z M353.6,357.6
		c0.9-4.2,1.1-4.9,0.3-7.5c-4.6-16-14.7-26.9-30.8-31.8c-5.8-1.8-11.6-0.6-16.7,2.7c-5.4,3.4-6.9,7.8-6,14.1c0.6,4,2.1,4.4,5.6,3
		c11.3-4.7,21.8-2.6,31.4,4.7C343.1,347,348.7,351.4,353.6,357.6z M246.7,349.7c17.4,0.8,34.3,0.5,50.2-7.4c4.1-2,3.8-4,0.7-6.5
		c-7.5-6.1-16.2-6.5-24.4-2.7C263.8,337.4,255.9,344.5,246.7,349.7z"/>
</g>
</svg>
