<?xml version="1.0" encoding="utf-8"?>
<!-- Generator: Adobe Illustrator 18.0.0, SVG Export Plug-In . SVG Version: 6.00 Build 0)  -->
<!DOCTYPE svg PUBLIC "-//W3C//DTD SVG 1.1//EN" "http://www.w3.org/Graphics/SVG/1.1/DTD/svg11.dtd">
<svg version="1.1" id="Layer_1" xmlns="http://www.w3.org/2000/svg" xmlns:xlink="http://www.w3.org/1999/xlink" x="0px" y="0px"
	 viewBox="0 0 500 500" enable-background="new 0 0 500 500" xml:space="preserve">
<rect fill="#EC5744" width="500" height="500"/>
<path opacity="0.1" fill="#0D1218" d="M722.2,283h-17.7c0,0,1.4,28.8-4.3,61.2c-5.8,32.5-26.7,59.5-26.7,59.5s-10.8,17.2-40.3,24.3
	c-29.5,7.1-48.7,5.7-48.7,5.7l-14.6,0.1c0,0-31.5,1.6-56.5-13.6c-25-15.2-43.9-43.2-48.6-50.3c-4.7-7.1-19.4-28.9-21.8-41.4
	c-2.4-12.5-11.5-47.7-28-46.7c-16.5-1-25.7,34.2-28,46.7c-2.4,12.5-17.1,34.3-21.8,41.4c-4.7,7.1-23.6,35.1-48.6,50.3
	c-25,15.2-56.5,13.6-56.5,13.6l-14.6-0.1c0,0-19.3,1.4-48.7-5.7c-29.4-7.1-40.3-24.3-40.3-24.3s-21-27-26.7-59.5
	c-5.8-32.5-4.3-61.2-4.3-61.2h-17.7c-5.1-21-3.8-56.1-3.8-56.1c14.9-1.6,42.7-7.6,42.7-7.6c33.2-7.8,61.5-12.3,98.7-13.7
	c37.2-1.4,108.5,11.5,126.1,21.1C389,236.3,415,235,415,235s26,1.3,43.6-8.3c17.6-9.6,88.8-22.4,126.1-21.1
	c37.2,1.3,65.6,5.9,98.7,13.7c0,0,27.8,6,42.6,7.6C726,226.9,727.3,262,722.2,283z"/>
<path fill="#F4C214" d="M712.2,273h-17.7c0,0,1.4,28.8-4.3,61.2c-5.8,32.5-26.7,59.5-26.7,59.5s-10.8,17.2-40.3,24.3
	c-29.5,7.1-48.7,5.7-48.7,5.7l-14.6,0.1c0,0-31.5,1.6-56.5-13.6c-25-15.2-43.9-43.2-48.6-50.3c-4.7-7.1-19.4-28.9-21.8-41.4
	c-2.4-12.5-11.5-47.7-28-46.7c-16.5-1-25.7,34.2-28,46.7c-2.4,12.5-17.1,34.3-21.8,41.4c-4.7,7.1-23.6,35.1-48.6,50.3
	c-25,15.2-56.5,13.6-56.5,13.6l-14.6-0.1c0,0-19.3,1.4-48.7-5.7c-29.4-7.1-40.3-24.3-40.3-24.3s-21-27-26.7-59.5
	c-5.8-32.5-4.3-61.2-4.3-61.2H97.7c-5.1-21-3.8-56.1-3.8-56.1c14.9-1.6,42.7-7.6,42.7-7.6c33.2-7.8,61.5-12.3,98.7-13.7
	c37.2-1.4,108.5,11.5,126.1,21.1C379,226.3,405,225,405,225s26,1.3,43.6-8.3c17.6-9.6,88.8-22.4,126.1-21.1
	c37.2,1.3,65.6,5.9,98.7,13.7c0,0,27.8,6,42.6,7.6C716,216.9,717.3,252,712.2,273z"/>
<path fill="#34495E" d="M190,212.1c0,0,46.9-5.5,96.4,0c49.5,5.5,77.9,24.7,77.5,58.2c-0.4,33.5,3,40.9-13.8,68.8
	c-17.4,28.9-33,47.9-55,60c-38.1,25.2-102.6,7.6-116.8,0c-14.2-7.6-33.5-27.7-41.5-50.6c-8-22.9-16.7-61.5-7.3-95.7
	c0,0,3.3-13,17-23.8C153.1,224.4,154.7,219.4,190,212.1z"/>
<path fill="#34495E" d="M620,212.1c0,0-46.9-5.5-96.4,0c-49.5,5.5-77.9,24.7-77.5,58.2c0.4,33.5-3,40.9,13.8,68.8
	c17.4,28.9,33,47.9,55,60c38.1,25.2,102.6,7.6,116.8,0c14.2-7.6,33.5-27.7,41.5-50.6c8-22.9,16.7-61.5,7.3-95.7c0,0-3.3-13-17-23.8
	C656.8,224.4,655.3,219.4,620,212.1z"/>
<path opacity="0.17" d="M295.1,399.2c21.9-12.2,37.5-31.2,55-60c16.8-27.9,13.5-35.3,13.8-68.8c0.1-9.9-2.3-18.6-7.1-26L159.3,384
	c6.5,6.7,13.2,12,19.1,15.2C192.5,406.8,257.1,424.4,295.1,399.2z"/>
<path opacity="0.17" d="M673.1,348.6c7.6-21.7,15.8-57.5,8.6-90.4L498.4,387.9c5.1,4.3,10.5,8.1,16.4,11.3
	c38.1,25.2,102.6,7.6,116.8,0C645.8,391.5,665.1,371.5,673.1,348.6z"/>
</svg>
