<?xml version="1.0" encoding="utf-8"?>
<!-- Generator: Adobe Illustrator 18.0.0, SVG Export Plug-In . SVG Version: 6.00 Build 0)  -->
<!DOCTYPE svg PUBLIC "-//W3C//DTD SVG 1.1//EN" "http://www.w3.org/Graphics/SVG/1.1/DTD/svg11.dtd">
<svg version="1.1" id="Layer_2" xmlns="http://www.w3.org/2000/svg" xmlns:xlink="http://www.w3.org/1999/xlink" x="0px" y="0px"
	 viewBox="0 0 1250 578.7" enable-background="new 0 0 1250 578.7" xml:space="preserve">
<rect fill="#99CDEF" width="1251" height="580.5"/>
<rect x="218.1" y="168.2" fill="#D7DBDD" width="553" height="237.6"/>
<rect x="214.2" y="162.6" fill="#F2F3F4" width="561" height="5.6"/>
<rect x="218.1" y="221" fill="#8E9295" width="364.2" height="45.8"/>
<rect x="218.1" y="266.9" fill="#5F6264" width="364.2" height="10.3"/>
<polygon fill="#2F3132" points="218,277 168,277 168,266.7 218.4,221.1 "/>
<rect x="236.2" y="287" fill="#343A3D" width="162" height="108.5"/>
<rect x="238.3" y="288.9" fill="#AAFFFB" width="51.4" height="104.3"/>
<rect x="291.9" y="288.9" fill="#AAFFFB" width="51.4" height="104.3"/>
<rect x="345.5" y="288.9" fill="#AAFFFB" width="51.4" height="104.3"/>
<rect x="413.9" y="286.8" fill="#343A3D" width="162" height="108.5"/>
<rect x="415.9" y="288.7" fill="#AAFFFB" width="51.4" height="104.3"/>
<rect x="469.5" y="288.7" fill="#AAFFFB" width="51.4" height="104.3"/>
<rect x="523.1" y="288.7" fill="#AAFFFB" width="51.4" height="104.3"/>
<rect y="405.9" fill="#4CD88A" width="1251" height="174.6"/>
<path fill="#389B64" d="M403.7,462.5H249.5c-5.7,0-10.4-4.7-10.4-10.4v0c0-5.7,4.7-10.4,10.4-10.4h154.2c5.7,0,10.4,4.7,10.4,10.4v0
	C414.1,457.9,409.4,462.5,403.7,462.5z"/>
<path fill="#389B64" d="M430.1,483.3H337c-5.7,0-10.4-4.7-10.4-10.4v0c0-5.7,4.7-10.4,10.4-10.4h93.1c5.7,0,10.4,4.7,10.4,10.4v0
	C440.5,478.6,435.8,483.3,430.1,483.3z"/>
<path fill="#389B64" d="M210.1,462.5h-21.4c-5.7,0-10.4-4.7-10.4-10.4v0c0-5.7,4.7-10.4,10.4-10.4h21.4c5.7,0,10.4,4.7,10.4,10.4v0
	C220.5,457.9,215.8,462.5,210.1,462.5z"/>
<path fill="#79E2A7" d="M843.7,480.3H655.1c-5.7,0-10.4-4.7-10.4-10.4v0c0-5.7,4.7-10.4,10.4-10.4h188.6c5.7,0,10.4,4.7,10.4,10.4v0
	C854,475.6,849.4,480.3,843.7,480.3z"/>
<path fill="#79E2A7" d="M727.1,501.1h-41.9c-5.7,0-10.4-4.7-10.4-10.4l0,0c0-5.7,4.7-10.4,10.4-10.4h41.9c5.7,0,10.4,4.7,10.4,10.4
	l0,0C737.5,496.4,732.8,501.1,727.1,501.1z"/>
<path fill="#79E2A7" d="M862.4,459.5H734.8c-5.7,0-10.4-4.7-10.4-10.4v0c0-5.7,4.7-10.4,10.4-10.4h127.6c5.7,0,10.4,4.7,10.4,10.4v0
	C872.8,454.9,868.1,459.5,862.4,459.5z"/>
<polygon fill="#CAFF55" points="943.1,271.9 907.8,340.6 925.6,368 943,368 "/>
<polygon fill="#98BF40" points="942.8,271.9 978.1,340.6 960.4,368 942.9,368 "/>
<path fill="#C2967F" d="M938.8,368.1c0,0-0.4,31.9-2.7,37.9h6.9l-0.1-38L938.8,368.1z"/>
<path fill="#865D47" d="M946.8,368.1c0,0,0.4,31.9,2.7,37.9h-6.9l0.1-38L946.8,368.1z"/>
<polygon fill="#CAFF55" points="77.1,271.9 41.8,340.6 59.6,368 77,368 "/>
<polygon fill="#98BF40" points="76.8,271.9 112.1,340.6 94.4,368 76.9,368 "/>
<path fill="#C2967F" d="M72.8,368.1c0,0-0.4,31.9-2.7,37.9h6.9l-0.1-38L72.8,368.1z"/>
<path fill="#865D47" d="M80.8,368.1c0,0,0.4,31.9,2.7,37.9h-6.9l0.1-38L80.8,368.1z"/>
<path fill="#C2967F" d="M1011.8,368.1c0,0-0.4,31.9-2.7,37.9h6.9l-0.1-38L1011.8,368.1z"/>
<path fill="#865D47" d="M1019.8,368.1c0,0,0.4,31.9,2.7,37.9h-6.9l0.1-38L1019.8,368.1z"/>
<path fill="#CAFF55" d="M1016,247.2c0,0-32.9-1.8-42,55s14.7,61.2,21,63s21,4.5,21,4.5V247.2z"/>
<path fill="#98BF40" d="M1016,247.2c0,0,32.9-1.8,42,55c9.1,56.7-14.7,61.2-21,63c-6.3,1.8-21,4.5-21,4.5V247.2z"/>
<path fill="#C2967F" d="M1092.8,368.1c0,0-0.4,31.9-2.7,37.9h6.9l-0.1-38L1092.8,368.1z"/>
<path fill="#865D47" d="M1100.8,368.1c0,0,0.4,31.9,2.7,37.9h-6.9l0.1-38L1100.8,368.1z"/>
<path fill="#CAFF55" d="M1097,247.2c0,0-32.9-1.8-42,55c-9.1,56.7,14.7,61.2,21,63c6.3,1.8,21,4.5,21,4.5V247.2z"/>
<path fill="#98BF40" d="M1097,247.2c0,0,32.9-1.8,42,55c9.1,56.7-14.7,61.2-21,63c-6.3,1.8-21,4.5-21,4.5V247.2z"/>
<path fill="#FFFFFF" d="M806.8,45.4c0,0-42-4.7-62.2,9.7s10.8,24.4,15.8,25.5s25.2,7.5,57.5,0c3.1,2.2,25.6,12.9,56.8,1.8
	c0.5-1.5,34.1,9.3,53.9-9c18.5-17.1-13.5-32.2-43.8-28.8c0,0-10.8,1.4-16.2,6.1c0,0-8.3-18-34.5-16.5
	C834.1,34.3,816.5,36.1,806.8,45.4z"/>
<path fill="#FFFFFF" d="M946.2,92.7c0,0,7.9-17.6,36.5-17c28.6,0.6,36.5,3,50.4,17c0,0,21.3-4.3,34,10.3
	c12.8,14.6-9.7,25.5-9.7,25.5s-4.3,6.1-24.9,4.9c0,0-7.3,5.2-17.6,0.2c0,0-6.1,5.3-27.3,5.3s-26.7-6.1-26.7-6.1s-8.7,6.7-38.7,1.2
	c-30-5.5-19-28.6-17.2-31c1.8-2.4,15.6-12.7,28.4-11.5S946.2,92.7,946.2,92.7z"/>
<rect x="230.5" y="182.8" fill="#FFFFFF" width="123.9" height="24.8"/>
<polygon fill="#D13137" points="285.7,206.2 232,206.2 232,184.1 294.5,184.1 "/>
<path fill="#FFFFFF" d="M237.6,189.6h1.3v4.8h0.2l4.8-4.8h1.8l-5.3,5.1l5.5,6.1h-1.9l-5.1-5.7h-0.2v5.7h-1.3V189.6z"/>
<path fill="#FFFFFF" d="M250.2,189.6h1.2l4.5,11.2h-1.5l-1.1-2.8H248l-1.1,2.8h-1.4L250.2,189.6z M250.8,191.3L250.8,191.3l-2.2,5.5
	h4.4L250.8,191.3z"/>
<path fill="#FFFFFF" d="M255.9,189.6h3.4c0.6,0,1.3,0,1.9,0.1c0.6,0.1,1.2,0.2,1.7,0.4c0.5,0.2,0.9,0.5,1.2,0.9
	c0.3,0.4,0.5,1,0.5,1.7c0,0.8-0.3,1.5-0.9,2c-0.6,0.5-1.4,0.8-2.5,1l3.8,5.2h-1.9l-3.6-5h-2v5h-1.6V189.6z M257.5,194.5h1.4
	c0.4,0,0.9,0,1.4,0c0.5,0,0.9-0.1,1.3-0.2c0.4-0.1,0.7-0.3,1-0.5c0.3-0.2,0.4-0.6,0.4-1.1c0-0.4-0.1-0.7-0.3-1
	c-0.2-0.2-0.4-0.4-0.7-0.6s-0.7-0.2-1-0.3c-0.4,0-0.8-0.1-1.2-0.1h-2.2V194.5z"/>
<path fill="#FFFFFF" d="M272.5,191.6c-0.2-0.4-0.6-0.6-1-0.8c-0.4-0.2-0.8-0.2-1.3-0.2c-0.3,0-0.6,0-1,0.1s-0.6,0.2-0.8,0.3
	c-0.2,0.1-0.5,0.3-0.6,0.6s-0.2,0.5-0.2,0.9c0,0.3,0,0.5,0.1,0.7c0.1,0.2,0.2,0.4,0.4,0.5c0.2,0.2,0.5,0.3,0.8,0.4
	c0.3,0.1,0.7,0.3,1.2,0.4c0.5,0.1,0.9,0.3,1.4,0.4c0.4,0.2,0.8,0.4,1.2,0.6c0.3,0.2,0.6,0.5,0.8,0.9c0.2,0.4,0.3,0.8,0.3,1.4
	c0,0.6-0.1,1-0.4,1.5c-0.2,0.4-0.6,0.8-1,1c-0.4,0.3-0.9,0.5-1.4,0.6s-1.1,0.2-1.6,0.2c-0.4,0-0.7,0-1.1-0.1c-0.4-0.1-0.7-0.1-1-0.3
	s-0.6-0.3-0.9-0.5c-0.3-0.2-0.5-0.4-0.7-0.7l1.3-0.9c0.3,0.4,0.6,0.7,1.1,0.9s1,0.3,1.5,0.3c0.3,0,0.6,0,1-0.1
	c0.3-0.1,0.6-0.2,0.9-0.4c0.3-0.2,0.5-0.4,0.6-0.6c0.2-0.2,0.2-0.5,0.2-0.8c0-0.3-0.1-0.6-0.2-0.8c-0.1-0.2-0.3-0.4-0.6-0.6
	c-0.3-0.2-0.6-0.3-1-0.4c-0.4-0.1-0.9-0.3-1.4-0.4c-0.4-0.1-0.8-0.3-1.2-0.4c-0.4-0.2-0.7-0.4-1-0.6c-0.3-0.2-0.5-0.5-0.6-0.9
	c-0.2-0.3-0.2-0.7-0.2-1.2c0-0.5,0.1-1,0.3-1.4c0.2-0.4,0.5-0.7,0.9-1c0.4-0.3,0.8-0.5,1.3-0.6c0.5-0.1,1-0.2,1.6-0.2
	c0.7,0,1.3,0.1,1.9,0.3c0.6,0.2,1.1,0.5,1.5,1L272.5,191.6z"/>
<path fill="#FFFFFF" d="M275.3,189.6h1.4v4.7h6.2v-4.7h1.4v11.2H283v-5.2h-6.2v5.2h-1.4V189.6z"/>
<polygon fill="#D13137" points="295.9,184.2 353,184.2 353,206.3 287.1,206.2 "/>
<path fill="#FFFFFF" d="M296,189.6h1.4v4.7h6.1v-4.7h1.4v11.2h-1.4v-5.2h-6.1v5.2H296V189.6z"/>
<path fill="#FFFFFF" d="M310.9,189.6h1.2l4.5,11.2h-1.5l-1.1-2.8h-5.3l-1.1,2.8h-1.4L310.9,189.6z M311.5,191.3L311.5,191.3
	l-2.2,5.5h4.4L311.5,191.3z"/>
<path fill="#FFFFFF" d="M326.1,200c-0.6,0.4-1.3,0.6-1.9,0.8c-0.7,0.2-1.4,0.3-2.1,0.3c-0.8,0-1.6-0.1-2.3-0.4
	c-0.7-0.3-1.3-0.7-1.8-1.2c-0.5-0.5-0.9-1.1-1.2-1.9c-0.3-0.7-0.4-1.5-0.4-2.4c0-0.9,0.1-1.7,0.4-2.4c0.3-0.7,0.7-1.3,1.2-1.9
	c0.5-0.5,1.1-0.9,1.8-1.2c0.7-0.3,1.4-0.4,2.2-0.4c0.7,0,1.4,0.1,2,0.3s1.2,0.6,1.7,1.1l-0.9,1c-0.4-0.4-0.8-0.7-1.3-0.9
	c-0.5-0.2-1-0.3-1.6-0.3c-0.6,0-1.2,0.1-1.7,0.3c-0.5,0.2-1,0.6-1.4,1s-0.7,0.9-0.9,1.5s-0.3,1.2-0.3,1.9c0,0.7,0.1,1.3,0.3,1.9
	c0.2,0.6,0.5,1.1,0.9,1.5s0.9,0.7,1.4,1c0.5,0.2,1.1,0.3,1.8,0.3c0.4,0,0.9-0.1,1.4-0.2c0.5-0.1,0.9-0.3,1.3-0.5v-3.4h-2.5v-1.2h3.7
	V200z"/>
<path fill="#FFFFFF" d="M331.2,189.6h1.2l4.5,11.2h-1.5l-1.1-2.8h-5.3l-1.1,2.8h-1.4L331.2,189.6z M331.8,191.3L331.8,191.3
	l-2.2,5.5h4.4L331.8,191.3z"/>
<path fill="#FFFFFF" d="M338.4,189.6h1.6l6.2,9.3h0v-9.3h1.3v11.2h-1.6l-6.2-9.3h0v9.3h-1.3V189.6z"/>
<rect x="590.5" y="287" fill="#343A3D" width="162" height="108.5"/>
<rect x="592.6" y="288.9" fill="#AAFFFB" width="51.4" height="104.3"/>
<rect x="646.2" y="288.9" fill="#AAFFFB" width="51.4" height="104.3"/>
<rect x="699.8" y="288.9" fill="#AAFFFB" width="51.4" height="104.3"/>
<polygon opacity="0.1" fill="#343A3D" points="560,288.9 416,288.7 416,392.9 447.6,393.2 "/>
<rect x="238.3" y="288.9" opacity="0.1" fill="#343A3D" width="158.5" height="104.3"/>
<polygon opacity="0.2" fill="#FFFFFF" points="644,358.7 606.9,393.2 631.1,393.2 644,380.9 "/>
<g>
	<polygon opacity="0.2" fill="#FFFFFF" points="700,327.5 740.2,289 719.2,288.9 700,306.8 	"/>
	<polygon opacity="0.2" fill="#FFFFFF" points="697.5,309.2 646.2,356.4 646.2,378.6 697.7,330 	"/>
</g>
<polygon opacity="0.2" fill="#FFFFFF" points="644,351.2 599.9,393 602.8,393 644,353.8 "/>
<g>
	<polygon opacity="0.2" fill="#FFFFFF" points="697.6,300.1 646,349.1 646.3,351.4 697.6,302.5 	"/>
	<polygon opacity="0.2" fill="#FFFFFF" points="700,300 712,288.7 709.4,288.7 700,297.6 	"/>
</g>
</svg>
