<?xml version="1.0" encoding="utf-8"?>
<!-- Generator: Adobe Illustrator 18.0.0, SVG Export Plug-In . SVG Version: 6.00 Build 0)  -->
<!DOCTYPE svg PUBLIC "-//W3C//DTD SVG 1.1//EN" "http://www.w3.org/Graphics/SVG/1.1/DTD/svg11.dtd">
<svg version="1.1" id="Layer_1" xmlns="http://www.w3.org/2000/svg" xmlns:xlink="http://www.w3.org/1999/xlink" x="0px" y="0px"
	 viewBox="0 0 500 500" enable-background="new 0 0 500 500" xml:space="preserve">
<rect fill="#BDC3C7" width="500" height="500"/>
<rect x="54.1" y="170" fill="#FFFFFF" width="391.8" height="231.5"/>
<path fill="#D13137" d="M67,182v206h129.6L279,182H67z M185.7,336l-50.3-51h-1.7l0,51H122l0.2-101.7l11.8,0.4V277h1.3l47.9-42.7
	l15.9,0.2l-51.6,46l54.5,55.5H185.7z"/>
<path fill="#D13137" d="M292,182l-82.4,206H433V182H292z M377.9,337h-11.6l0-46h-59l0.1,45.8l-11.4,0.1V235h11.3l-0.2,45.2l58.9-0.1
	V235h12L377.9,337z"/>
</svg>
