<?xml version="1.0" encoding="utf-8"?>
<!-- Generator: Adobe Illustrator 18.0.0, SVG Export Plug-In . SVG Version: 6.00 Build 0)  -->
<!DOCTYPE svg PUBLIC "-//W3C//DTD SVG 1.1//EN" "http://www.w3.org/Graphics/SVG/1.1/DTD/svg11.dtd">
<svg version="1.1" xmlns="http://www.w3.org/2000/svg" xmlns:xlink="http://www.w3.org/1999/xlink" x="0px" y="0px"
	 viewBox="0 0 1250 578.7" enable-background="new 0 0 1250 578.7" xml:space="preserve">
<g id="Layer_2">
	<rect fill="#F28BA1" width="1251" height="580.5"/>
	<path fill="#1D3558" d="M904.4,290.5"/>
</g>
<g id="Layer_4">
	<rect x="943.3" y="86.5" fill="#F8FFC3" width="332.3" height="458"/>
	<rect x="943.3" y="57.8" fill="#C2993C" width="332.3" height="28.8"/>
	<rect x="943.3" y="544.5" fill="#FFFFFF" width="332.3" height="9.1"/>
	<rect x="943.3" y="544.5" opacity="0.1" width="332.3" height="4.8"/>
</g>
<g id="Layer_6">
	<g opacity="0.1">
		<path d="M978,286.3v-6l-8-8.2v0.8h-82v1h-11v-10h-20h-20l-8.2,10H820v-0.1c-8.1,0.7-11.7,8-13.1,11.9l-0.8,0
			c-1.5-4.6-5.1-13.5-16.1-13.5V272h-67v13.4l0,0V273h-81.5l0-0.4l-6.5,11.1v1.4l-10,0v270.4l156.6-0.6c28,16.3,48.8,0.1,48.8,0.1
			H987V286.4L978,286.3z"/>
		<polygon points="641.5,272.2 641.5,272.6 641.6,272.4 		"/>
	</g>
	<path fill="#4B2327" d="M614,274.1l362,1.3V544H819.4c0,0-20.8,16.2-48.8-0.1L614,544.5V274.1z"/>
	<polyline fill="#E9DFD5" points="630.6,261.4 624,272.7 624,534 631.8,522.8 630.5,261.2 	"/>
	<polygon fill="#EFEEEB" points="959.1,521.4 876.9,521.4 874.3,263 959.1,262.3 	"/>
	<path fill="#EFEEEB" d="M778.8,520.9l16.7,15.1l0.5-258.6c0,0-3-16.3-17-16.1V521"/>
	<polygon fill="#EFEEEB" points="779.3,521.2 712,521.2 710.7,262 779.3,261.2 	"/>
	<path fill="#EBE9DC" d="M795.2,277.1c0,0,2.8-13.3,13.8-14.2l1.7,259.6L794.7,536L795.2,277.1z"/>
	<path fill="#FBF8E9" d="M630.4,262H712v259h66.3c0,0,15.2,1.9,16.6,15.1c0,0,1-14.6,14-14.6V263h68v257.9l82,0.6V261.2l8,8.2v263
		l-151.9,1.3c0,0-2.3,10.3-20.1,10.3s-19.7-9.9-19.7-9.9l-151.6-0.5l8-10.4L630.4,262z"/>
	<polygon fill="#158891" points="817.8,263 826,263 826,253 	"/>
	<g>
		<rect x="649" y="492" fill="#BAB8AE" width="130" height="6"/>
		<rect x="649" y="476" fill="#BAB8AE" width="130" height="7"/>
		<rect x="649" y="460" fill="#BAB8AE" width="130" height="7"/>
		<rect x="649" y="445" fill="#BAB8AE" width="130" height="5"/>
		<rect x="649" y="427" fill="#BAB8AE" width="130" height="7"/>
		<rect x="649" y="412" fill="#BAB8AE" width="130" height="7"/>
		<rect x="649" y="396" fill="#BAB8AE" width="130" height="6"/>
		<rect x="649" y="379" fill="#BAB8AE" width="130" height="7"/>
		<rect x="649" y="363" fill="#BAB8AE" width="130" height="5"/>
		<rect x="649" y="347" fill="#BAB8AE" width="130" height="6"/>
		<rect x="649" y="330" fill="#BAB8AE" width="130" height="7"/>
		<rect x="649" y="315" fill="#BAB8AE" width="130" height="6"/>
		<rect x="649" y="299" fill="#BAB8AE" width="130" height="5"/>
		<rect x="649" y="282" fill="#BAB8AE" width="130" height="7"/>
		<rect x="813" y="492" fill="#BAB8AE" width="130" height="6"/>
		<rect x="813" y="476" fill="#BAB8AE" width="130" height="7"/>
		<rect x="813" y="460" fill="#BAB8AE" width="130" height="7"/>
		<rect x="813" y="445" fill="#BAB8AE" width="130" height="5"/>
		<rect x="813" y="427" fill="#BAB8AE" width="130" height="7"/>
		<rect x="813" y="412" fill="#BAB8AE" width="130" height="7"/>
		<rect x="813" y="396" fill="#BAB8AE" width="130" height="6"/>
		<rect x="813" y="379" fill="#BAB8AE" width="130" height="7"/>
		<rect x="813" y="363" fill="#BAB8AE" width="130" height="5"/>
		<rect x="813" y="347" fill="#BAB8AE" width="130" height="6"/>
		<rect x="813" y="330" fill="#BAB8AE" width="130" height="7"/>
		<rect x="813" y="315" fill="#BAB8AE" width="130" height="6"/>
		<rect x="813" y="299" fill="#BAB8AE" width="130" height="5"/>
		<rect x="813" y="282" fill="#BAB8AE" width="130" height="7"/>
	</g>
	<polygon fill="#158891" points="846,253 846,414.1 866,422.4 866,253 	"/>
	<polygon fill="#1EB4B5" points="826,253 846,253 846,414.1 826,422.4 	"/>
</g>
<g id="Layer_5">
	<path opacity="0.1" d="M444,408.5l-6.4,0c-3.2-1.4-15.4-7.7-15.4-22.6c0-15.3,12.5-20.9,15.3-21.9h6.5V98h-45v-1h-12v1H216v1.5
		c-5-0.3-27,0-32,25.6v92.2c0,0.3-0.3,0.6-0.4,0.9l0.1,53.1c0,0,0.3-0.2,0.3-0.5v120.8c0,0,2.7,27.4,28.5,27.4H239v26.3l5.6-12.5
		l5.4,12.5V419h136.7l0,0h11.8l0,0H444V408.5z M216,363h-0.1l0.1-14.8V363z"/>
	<path fill="#EFC635" d="M428.9,357.4c0,0-16,4.8-16,22s16,22.9,16,22.9l-224.8,1.2c0,0-21.7-2.1-22.3-24.5s25-21.5,25-21.5
		L428.9,357.4z"/>
	<line fill="none" stroke="#7A620F" stroke-miterlimit="10" x1="183" y1="382.5" x2="413" y2="382.5"/>
	<path fill="#C79B05" d="M182.2,362.9l0.3,14.8c-1.5-0.7,3.4-14.7,29.4-14.7h207.5c4.5-4,9.5-5.9,9.5-5.9l-223.6-1.2
		C205.2,355.9,189.6,358.9,182.2,362.9z"/>
	<path fill="#518892" d="M207.5,92.1c0,0-26.5-2.8-33.5,26.5V385c0,0,3.5,26,29.3,26H434v-9.1l-230,1.4c0,0-19.4-2.4-21.4-21.9
		c-1.1-15.8,11.3-22.5,25.1-23.9L207.5,92.1z"/>
	<rect x="206.8" y="92.1" fill="#5F9EAF" width="227.3" height="265.6"/>
	<path fill="#A74757" d="M173.9,264.7c0,0,13.4-20.5,33.4-20.5l-0.5-57c0,0-23.9,2.3-33.4,24.5L173.9,264.7z"/>
	<rect x="206.3" y="187.1" fill="#BB5B5A" width="228.5" height="57"/>
	<rect x="377.6" y="90" fill="#1F3455" width="11.7" height="321.9"/>
	<polygon fill="#C25A58" points="229,384 229,438.7 235.1,426.2 241,438.7 241,384 	"/>
</g>
<g id="Layer_3">
	<path fill="#EFC537" d="M273,277.4v3.7c0,0,15.5,0.9,15.5,16c0,15.1-15.5,16.9-15.5,16.9v2.8l192,0.8c0,0,14.9,0.7,15.8-18.6
		s-21.8-23.3-24-21.4L273,277.4z"/>
	<path opacity="0.2" fill="#000715" d="M456.9,277.5L273,277.4v3.7c0,0,4.2-0.1,8.4,2.9h178.1c3.5,0,8.7,0.5,12.2,2.9
		c3.7,2.5,4.3,1.8,8.7,8.2c-0.3-0.3,0.2-2.7-1.4-4.9c-2.6-3.6-6-8.2-6.6-8.6C466.1,277.2,458.1,276.4,456.9,277.5z"/>
	<rect x="271.6" y="61.5" fill="#365C89" width="185.8" height="216.2"/>
	<path fill="#1D3558" d="M457.2,61.3c0,0,25.8-1.2,25.8,18.2v222.5c0,0-1.7,19.1-18.9,20.7l-191.9-0.3l0-5.6l192.9,0.8
		c0,0,14.2-2.3,14.3-18.1c0.1-15.8-13.1-21.6-18.7-21.6l-3.7-0.3L457.2,61.3z"/>
	<path fill="#D8D4B5" d="M457.4,144.6c0,0,15-1.9,25.6,12.8v7.9c0,0-10.8-12.1-25.8-10.3L457.4,144.6z"/>
	<path fill="#D8D4B5" d="M457.4,160.6c0,0,15-1.9,25.6,12.8v7.9c0,0-10.8-12.1-25.8-10.3L457.4,160.6z"/>
	<path opacity="0.1" d="M277,282c0,0,9.3,2,11.2,11.6c-2.9-3.3-5.4-4.9-11.2-4.9V282z"/>
	<rect x="277" y="322.9" opacity="0.1" width="157.2" height="6.5"/>
</g>
</svg>
