<?xml version="1.0" encoding="utf-8"?>
<!-- Generator: Adobe Illustrator 18.0.0, SVG Export Plug-In . SVG Version: 6.00 Build 0)  -->
<!DOCTYPE svg PUBLIC "-//W3C//DTD SVG 1.1//EN" "http://www.w3.org/Graphics/SVG/1.1/DTD/svg11.dtd">
<svg version="1.1" id="Layer_2" xmlns="http://www.w3.org/2000/svg" xmlns:xlink="http://www.w3.org/1999/xlink" x="0px" y="0px"
	 viewBox="0 0 1250 578.7" enable-background="new 0 0 1250 578.7" xml:space="preserve">
<rect fill="#9C56B8" width="1251" height="580.5"/>
<path fill="#33495F" d="M737.4,301.2H316.3c-6.6,0-12-5.4-12-12V52.3c0-6.6,5.4-12,12-12h421.1c6.6,0,12,5.4,12,12v236.9
	C749.4,295.8,744,301.2,737.4,301.2z"/>
<path fill="#B078C6" d="M726.1,289.9H328.7c-6.6,0-12-5.4-12-12V66.2c0-6.6,5.4-12,12-12h397.4c6.6,0,12,5.4,12,12v211.7
	C738.1,284.5,732.7,289.9,726.1,289.9z"/>
<path fill="#33495F" d="M594.7,359H527c-0.3,0-0.5,0-0.5,0h-67.6c-5.2,0-4.9-6.3-4.9-6.3s0-6.8,0-11.4c0-4.5,5.8-4.9,5.8-4.9
	c26.5-7.1,25.9-35.5,25.9-35.5h82.1c0,0-0.9,28.4,25.6,35.5c0,0,5.5,0.4,5.5,4.9c0,4.5,0,11.4,0,11.4S599.8,359,594.7,359z"/>
<path opacity="0.51" fill="#343A3D" d="M568,273h-81.1c-3.4,0-5.9,3.1-5.9,6.5V279h-15v6h-5v4h5v5h15v-1.3c0,3.4,2.5,6.3,5.9,6.3
	H568c3.4,0,6-2.9,6-6.3v-13.2C574,276.1,571.4,273,568,273z"/>
<path opacity="0.51" fill="none" stroke="#343A3D" stroke-miterlimit="10" d="M463.2,287.1l-8.1,0c0,0-9.6,0-9.8,8.8"/>
<path fill="#5F6264" d="M566,298h-78.7c-4,0-7.3-3.3-7.3-7.3v-10.8c0-4,3.3-7.3,7.3-7.3H566c4,0,7.3,3.3,7.3,7.3v10.8
	C573.3,294.7,570,298,566,298z"/>
<path fill="#343A3D" d="M565,297.1h-76.6c-4,0-7.3-3.3-7.3-7.3v-8.9c0-4,3.3-7.3,7.3-7.3H565c4,0,7.3,3.3,7.3,7.3v8.9
	C572.4,293.7,569.1,297.1,565,297.1z"/>
<circle fill="#2F3132" cx="493.1" cy="285.2" r="1.7"/>
<circle fill="#2F3132" cx="526.6" cy="285.2" r="3.1"/>
<circle fill="#2F3132" cx="561" cy="285.2" r="1.7"/>
<rect x="465" y="278.3" fill="#ECF0F1" width="14.9" height="15.2"/>
<rect x="460.1" y="284.3" fill="#ECF0F1" width="4.9" height="4"/>
<path fill="#ECF0F1" d="M460.5,286.2"/>
<path fill="#ECF0F1" d="M456,286.2"/>
<path fill="none" stroke="#ECF0F1" stroke-miterlimit="10" d="M462.4,286.3l-7.6-0.1c0,0-9.3,0-9.3,9.1v0.5c0,0-0.1,7.2,6.7,7.2
	c6.7,0,6.5-1.9,6.5-1.9"/>
<text transform="matrix(1 0 0 1 466.2822 288.2402)" fill="#BDC3C7" font-family="'MyriadPro-Regular'" font-size="5.8681">LEAP</text>
<path opacity="0.1" fill="#93A5A6" d="M567.2,298c3.4,0,6.1-2.7,6.1-6.2l0.1-13.2c0-3.5-2.7-6.5-6.2-6.5h-6.6L495,298H567.2z"/>
<path opacity="0.37" fill="#5D5D5D" d="M913,346v-9h-7.5c-0.9-11-1.8-28.5,1-38.8c4.2-15.8,3.7-45.2,3.7-45.2l-40.8-47.4l-61.2-7.5
	c0,0,0.5,20.8,16.7,21.3l25,3.2l16.7,30.6c0,0,4.2,5.8,2.8,9.6c-1.4,3.8-1.9,8.9-7.4,13.1c-5.6,4.2-10.7,2.3-13,1.4
	s-14.8-14.5-14.8-14.5s-13-10.8-26-1.2l31.1,40.7c0,0,2.8,22.3,14.8,28.8l0.5,5.9H846v9h-7l0.4,159l79.6,0.6V346H913z"/>
<path fill="#F8D5A8" d="M901.4,340c0,0-4.2-32.2,0-48c4.2-15.8,3.7-45.1,3.7-45.1l-40.8-47.3l-61.2-7.4c0,0,0.5,20.8,16.7,21.3
	l25,3.2l16.7,30.6c0,0,4.2,5.8,2.8,9.6c-1.4,3.8-1.9,8.9-7.4,13.1s-10.7,2.3-13,1.4s-14.8-14.5-14.8-14.5s-13-10.8-26-1.2l31.1,40.7
	c0,0,2.8,22,14.8,28.5l1.4,15.1H901.4z"/>
<rect x="841.2" y="330.7" fill="#FFFFFF" width="66.3" height="9.2"/>
<rect x="833.6" y="340" fill="#39A492" width="81.2" height="161.1"/>
<g>
	<polygon fill="#ECF0F1" points="538.9,73 548.7,61 505.8,61 515.6,73 	"/>
	<path fill="#ECF0F1" d="M548.4,235.3c13.9-7.5,23.4-22.2,23.4-39.1c0-17-9.6-31.8-23.6-39.3c-0.5-0.3-0.4-0.4-0.6-0.6
		c-9.9-11-10.5-20.1-10.8-27.6c-0.3-7.6,1.6-53.7,1.6-53.7h-22.6c0,0,1.9,44,1.6,54.1s-0.8,16.2-10.7,27.2c-0.3,0.4-0.6,0.8-1,1.1
		c-13.7,7.6-22.9,22.4-22.9,39.2c0,16.2,8.7,29.4,21.6,38.4h-0.2c0,0,14.8,6,2.7,16h40.6C538,244,544.9,237.7,548.4,235.3z
		 M527.4,173c13.6,0,24.6,11,24.6,24.6c0,13.6-11,24.6-24.6,24.6s-24.6-11-24.6-24.6C502.9,184,513.9,173,527.4,173z"/>
</g>
<path fill="#5F3200" d="M551,254.5v1.6l-24.5,0.2l-24.5-0.2v-1.6c0-2.7,3-3.5,3-3.5h44.2C549.2,251,551,251.7,551,254.5z"/>
<path fill="#472600" d="M542.2,266h12.2c0,0-1.6-3.6-0.7-6.9c0.9-3.3-1.8-3.3-1.8-3.3l-24.7-0.1l-24.7,0c0,0-2.8,0.2-1.8,3.5
	s-0.7,6.8-0.7,6.8H512l-1.1-4.2c0,0-0.7-2,1.1-1.9l3.8-0.1l3.8,0c1.9-0.1,1.2,2,1.2,2l-1.1,4.2h14.9l-1.1-4.2c0,0-0.7-2,1.2-1.9
	l3.8-0.1l3.8,0c1.9-0.1,1.1,2,1.1,2L542.2,266z"/>
<g opacity="8.000000e-02">
	<polygon fill="#343A3D" points="548.7,61 527,61 527,73 538.9,73 	"/>
	<path fill="#343A3D" d="M548.4,235.3c13.9-7.5,23.4-22.2,23.4-39.1c0-17-9.6-31.8-23.6-39.3c-0.5-0.3-0.4-0.4-0.6-0.6
		c-9.9-11-10.5-20.1-10.8-27.6c-0.3-7.6,1.6-53.7,1.6-53.7H527v98c0,0,0.3,0,0.3,0c13.6,0,24.6,11,24.6,24.6s-11.1,24.6-24.7,24.6
		c-0.1,0-0.3,0-0.3,0v29.1v4.3v0.7v9.7h7.5l-1.1-4.2c0,0-0.7-2,1.2-1.9l3.8-0.1l3.8,0c1.9-0.1,1.1,2,1.1,2l-1.1,4.2h12.2
		c0,0-1.6-3.6-0.7-6.9c0.9-3.3-2-3.3-2-3.3l-0.6-0.1v-1.2c0-2.7-1.8-3.5-1.8-3.5h-1.8C538,244,544.9,237.7,548.4,235.3z"/>
</g>
</svg>
