<?xml version="1.0" encoding="utf-8"?>
<!-- Generator: Adobe Illustrator 19.1.0, SVG Export Plug-In . SVG Version: 6.00 Build 0)  -->
<svg version="1.1" id="Layer_1" xmlns="http://www.w3.org/2000/svg" xmlns:xlink="http://www.w3.org/1999/xlink" x="0px" y="0px"
	 viewBox="0 0 1250 578.7" enable-background="new 0 0 1250 578.7" xml:space="preserve">
<rect fill="#FFFFFF" width="1250" height="578.7"/>
<g>
	<path d="M213.3,162.1h-5.2c-0.6,0-0.9-0.3-0.9-0.9V159c0-0.7,0.3-0.9,0.9-0.9h5.2v-5.2c0-0.7,0.2-1,0.8-1h2.2c0.7,0,0.9,0.3,0.9,1
		v5.2h5.2c0.7,0,1,0.2,1,0.9v2.2c0,0.7-0.3,0.9-1,0.9h-5.2v5.2c0,0.6-0.3,0.9-0.9,0.9h-2.2c-0.6,0-0.8-0.3-0.8-0.9V162.1z"/>
</g>
<g>
	<g>
		<circle fill="#C22026" cx="157.1" cy="150.6" r="15.3"/>
		<path fill="#2A2B2A" d="M157.1,167c-9,0-16.4-7.4-16.4-16.4c0-9,7.4-16.4,16.4-16.4c9,0,16.4,7.4,16.4,16.4
			C173.5,159.6,166.2,167,157.1,167z M157.1,136.4c-7.8,0-14.2,6.4-14.2,14.2s6.4,14.2,14.2,14.2c7.8,0,14.2-6.4,14.2-14.2
			S165,136.4,157.1,136.4z"/>
	</g>
	<circle fill="#C22026" cx="175.7" cy="169.5" r="2.6"/>
	<path fill="#2A2B2A" d="M147.4,154.9c-0.5,0-0.9-0.3-1-0.8c0-0.1-1.1-3.7,0.1-7.2c1.2-3.4,4.6-5.5,4.7-5.6c0.5-0.3,1.2-0.2,1.5,0.3
		c0.3,0.5,0.2,1.2-0.3,1.5c0,0-2.9,1.9-3.8,4.5c-1,2.8-0.1,5.8-0.1,5.8c0.2,0.6-0.1,1.2-0.7,1.4
		C147.6,154.9,147.5,154.9,147.4,154.9z"/>
	<path fill="#2A2B2A" d="M186.7,188.5c-2.1,0-4.1-0.8-5.7-2.4l-16.7-16.7c-0.3-0.3-0.4-0.6-0.3-1c0.1-0.4,0.3-0.7,0.6-0.8
		c4.2-1.8,7.5-5.1,9.4-9.3c0.1-0.3,0.4-0.6,0.8-0.6c0.4-0.1,0.7,0.1,1,0.3l16.6,16.6c3.2,3.2,3.2,8.3,0,11.4
		C190.9,187.7,188.8,188.5,186.7,188.5z M167,169l15.6,15.6c1.1,1.1,2.6,1.7,4.2,1.7c1.6,0,3.1-0.6,4.2-1.7c1.1-1.1,1.7-2.6,1.7-4.2
		c0-1.6-0.6-3.1-1.7-4.2l0,0l-15.5-15.6C173.4,164.2,170.5,167.1,167,169z"/>
	<path fill="#2A2B2A" d="M157.1,171.5c-11.5,0-20.9-9.4-20.9-20.9s9.4-20.9,20.9-20.9c11.5,0,20.9,9.4,20.9,20.9c0,3-0.6,6-1.9,8.7
		c-2.1,4.6-5.9,8.3-10.5,10.4C162.9,170.9,160,171.5,157.1,171.5z M157.1,131.9c-10.3,0-18.7,8.4-18.7,18.7
		c0,10.3,8.4,18.7,18.7,18.7c2.6,0,5.1-0.5,7.5-1.6c4.2-1.8,7.5-5.1,9.4-9.3c1.1-2.5,1.7-5.1,1.7-7.8
		C175.8,140.3,167.4,131.9,157.1,131.9z"/>
	<path fill="#2A2B2A" d="M175.1,181.5c-0.3,0-0.6-0.1-0.8-0.3c-0.4-0.4-0.4-1.1,0-1.5l11.9-11.9c0.4-0.4,1.1-0.4,1.5,0
		c0.4,0.4,0.4,1.1,0,1.5l-11.9,11.9C175.6,181.4,175.3,181.5,175.1,181.5z"/>
</g>
<g>
	<g>
		<polygon fill="#C22026" points="259.6,185 278.7,165.8 297.7,184.9 		"/>
		<path d="M259.6,186c-0.4,0-0.8-0.3-1-0.7c-0.2-0.4-0.1-0.9,0.2-1.2l19.1-19.1c0.4-0.4,1.1-0.4,1.5,0l19,19
			c0.3,0.3,0.4,0.8,0.2,1.2c-0.2,0.4-0.6,0.7-1,0.7L259.6,186C259.6,186,259.6,186,259.6,186z M278.7,167.4l-16.5,16.5l32.9-0.1
			L278.7,167.4z"/>
	</g>
	<path d="M284.5,181.9c-0.6,0-1.1-0.5-1.1-1.1c0-2.5-2-4.6-4.6-4.6s-4.6,2-4.6,4.6c0,0.6-0.5,1.1-1.1,1.1c-0.6,0-1.1-0.5-1.1-1.1
		c0-3.7,3-6.8,6.8-6.8s6.8,3,6.8,6.8C285.6,181.4,285.1,181.9,284.5,181.9z"/>
	<path d="M257.2,178.2h-7.6v-31.8h7.6V178.2z M251,176.7h4.7v-28.9H251V176.7z"/>
	<path d="M255.3,147.8h-4.2l-0.1-0.7c0-0.1-0.5-5.6-4-7.6l-0.5-0.3l4.2-11.4h5.6l4.2,11.4l-0.5,0.3c-3.4,2.1-4,7.6-4,7.6l-0.1,0.7
		L255.3,147.8z M252.4,146.3h2.3c0.2-1.6,1.2-5.6,4.1-7.8l-3.4-9.4h-3.6l-3.4,9.4C251.2,140.7,252.1,144.7,252.4,146.3z"/>
	<circle fill="#C22026" cx="253.5" cy="137.4" r="1.8"/>
	<rect x="252.6" y="129.2" fill="#C22026" width="1.9" height="7.1"/>
	<g>
		
			<rect x="258" y="144.3" transform="matrix(0.7071 0.7071 -0.7071 0.7071 196.1838 -136.1056)" fill="#FFFFFF" width="8.8" height="48.9"/>
		<path d="M248.2,190.2c-0.3,0-0.6-0.1-0.8-0.3l-6.2-6.2c-0.2-0.2-0.3-0.5-0.3-0.8c0-0.3,0.1-0.6,0.3-0.8l34.6-34.6
			c0.4-0.4,1.1-0.4,1.5,0l6.2,6.2c0.4,0.4,0.4,1.1,0,1.5L249,189.9C248.8,190.1,248.5,190.2,248.2,190.2z M243.5,182.9l4.7,4.7
			l33-33l-4.7-4.7L243.5,182.9z"/>
	</g>
</g>
<g>
	<path fill="#C22026" d="M618.9,196.4c-0.2,0.8-1,1.2-1.7,1.1c-0.8-0.2-1.2-1-1.1-1.7c0.2-0.8,1-1.2,1.7-1.1
		C618.6,194.9,619.1,195.7,618.9,196.4z M620,191.9c-0.2,0.8-1,1.2-1.7,1.1c-0.8-0.2-1.2-1-1.1-1.7c0.2-0.8,1-1.2,1.7-1.1
		C619.7,190.4,620.2,191.2,620,191.9z M621.1,187.4c-0.2,0.8-1,1.2-1.7,1.1c-0.8-0.2-1.2-1-1.1-1.7c0.2-0.8,1-1.2,1.7-1.1
		C620.8,185.9,621.3,186.6,621.1,187.4z M622.2,182.9c-0.2,0.8-1,1.2-1.7,1.1c-0.8-0.2-1.2-1-1.1-1.7c0.2-0.8,1-1.2,1.7-1.1
		C621.9,181.3,622.4,182.1,622.2,182.9z"/>
	<path fill="#C22026" d="M615.7,190.9c-0.2,0.8-1,1.2-1.7,1.1c-0.8-0.2-1.2-1-1.1-1.7c0.2-0.8,1-1.2,1.7-1.1
		C615.4,189.3,615.9,190.1,615.7,190.9z M616.8,186.4c-0.2,0.8-1,1.2-1.7,1.1c-0.8-0.2-1.2-1-1.1-1.7c0.2-0.8,1-1.2,1.7-1.1
		C616.5,184.8,617,185.6,616.8,186.4z M617.9,181.8c-0.2,0.8-1,1.2-1.7,1.1c-0.8-0.2-1.2-1-1.1-1.7c0.2-0.8,1-1.2,1.7-1.1
		C617.6,180.3,618.1,181.1,617.9,181.8z"/>
	<path fill="#C22026" d="M624.1,192.9c-0.2,0.8-1,1.2-1.7,1.1c-0.8-0.2-1.3-1-1.1-1.7c0.2-0.8,1-1.2,1.7-1.1
		C623.8,191.4,624.3,192.2,624.1,192.9z M625.2,188.4c-0.2,0.8-1,1.2-1.7,1.1c-0.8-0.2-1.3-1-1.1-1.7c0.2-0.8,1-1.2,1.7-1.1
		C625,186.9,625.4,187.7,625.2,188.4z M626.3,183.9c-0.2,0.8-1,1.2-1.7,1.1c-0.8-0.2-1.3-1-1.1-1.7c0.2-0.8,1-1.2,1.7-1.1
		C626.1,182.4,626.5,183.1,626.3,183.9z"/>
	<path d="M635.5,187.1c-0.3,0-0.7-0.1-1-0.2c-0.9-0.3-1.4-1.1-1.5-2.1l-0.1-0.8c-0.2-2.4-0.7-8.1-1.6-10.1c-0.2-0.6-0.5-1.2-0.9-1.8
		c-0.4,0.4-0.8,0.8-1.2,1c0.3,0.8,0.6,1.8,0.7,2.8c0.2,1.6-0.1,3.1-0.3,3.9l-0.4,1.2c-0.2,0.6-0.7,0.9-1.3,0.8l-13.4-3.3
		c-0.6-0.1-0.9-0.7-0.8-1.3l0.2-1.2c0.2-0.8,0.6-2.2,1.5-3.6c0.5-0.7,1.1-1.4,1.9-2.1c-0.3-0.4-0.5-0.9-0.7-1.5
		c-0.5,0.4-1.1,0.7-1.5,1.1c-1.6,1.3-4.7,6.1-6,8.1l-0.5,0.8c-0.5,0.8-1.4,1.2-2.3,1.1c-1-0.1-2-0.9-2.3-1.8c-0.2-0.6,0-1.5,1.1-5.8
		c1.1-4.5,3.1-10.6,6.2-13.9c2.4-2.6,4.7-3.8,6.4-4.5c0.2-2.6,0.8-5.3,1.6-8.2c0.2-0.6,0.7-0.9,1.3-0.8l17.4,4.3
		c0.6,0.1,0.9,0.7,0.8,1.3c-0.6,2.9-1.4,5.6-2.4,8c1.3,1.6,3.2,5,3.7,7.2c0.6,2.4,0,10.5-1,14.9c-0.9,3.7-1.3,5-1.7,5.6
		C637,186.8,636.3,187.1,635.5,187.1z M630.4,168.9c0.3,0,0.7,0.1,0.9,0.4c0.9,1.3,1.6,2.5,2.1,3.8c1,2.3,1.5,8,1.7,10.8l0.1,0.8
		c0,0.1,0,0.2,0.2,0.3c0.2,0.1,0.4,0,0.4,0c0.2-0.3,0.7-2.5,1.2-4.7c1-4.3,1.5-11.9,1-13.9c-0.5-2.1-2.6-5.8-3.6-6.7
		c-0.3-0.3-0.4-0.8-0.2-1.2c0.9-2.1,1.7-4.6,2.3-7.2l-15.3-3.8c-0.7,2.6-1.1,5.1-1.3,7.4c0,0.5-0.3,0.8-0.8,1
		c-1.5,0.4-3.7,1.5-6.1,4.1c-2.8,3-4.6,8.7-5.6,13c-0.4,1.5-1,4-1,4.7c0.1,0.1,0.2,0.2,0.3,0.2c0.1,0,0.2,0,0.3-0.1l0.4-0.7
		c1.6-2.6,4.6-7.2,6.5-8.7c1-0.8,2.2-1.6,3.5-2.3c0.4-0.2,0.8-0.2,1.2,0.1c0.3,0.3,0.5,0.7,0.4,1.1c0,0,0,0,0,0.1l-0.1,0.3
		c-0.2,0.9,0.4,1.8,0.9,2.3c0.2,0.2,0.3,0.5,0.3,0.8c0,0.3-0.2,0.6-0.4,0.7c-1,0.8-1.7,1.6-2.2,2.3c-0.7,1.1-1.1,2.3-1.2,2.9l0,0.1
		l11.4,2.8l0-0.1c0.1-0.4,0.4-1.7,0.2-3.1c-0.1-1.1-0.6-2.3-0.9-3.1c-0.2-0.5,0-1.2,0.6-1.4c0.6-0.3,1.5-0.8,1.7-1.7l0.1-0.3
		c0.1-0.4,0.5-0.8,0.9-0.8C630.2,168.9,630.3,168.9,630.4,168.9z"/>
	<g>
		<path fill="#C22026" d="M637.8,150.4c0.1-0.7,0.2-1.5,0.3-2.2c1.5-13.2-1.9-19.1-3-20.6c0,0-0.3-0.4-0.8-0.5c-0.4-0.1-1,0.1-1,0.1
			c-1.7,0.8-7.5,4.5-12.2,16.9c-0.3,0.7-0.5,1.4-0.7,2.1L637.8,150.4z"/>
		<path d="M637.8,151.5c-0.1,0-0.2,0-0.3,0l-17.4-4.3c-0.3-0.1-0.5-0.3-0.7-0.5s-0.2-0.6-0.1-0.9l0.1-0.4c0.2-0.6,0.4-1.2,0.6-1.7
			c4.8-12.7,11-16.6,12.7-17.5c0.2-0.1,1-0.4,1.8-0.2c0.9,0.3,1.3,0.9,1.4,1c1.1,1.6,4.8,7.8,3.2,21.4c-0.1,0.6-0.2,1.2-0.3,1.9
			l-0.1,0.4c0,0.3-0.2,0.6-0.5,0.7C638.2,151.4,638,151.5,637.8,151.5z M621.8,145.4l15.1,3.7c0.1-0.3,0.1-0.7,0.1-1
			c1.5-12.8-1.8-18.4-2.8-19.9c0,0-0.1-0.1-0.3-0.1c0,0-0.1,0-0.2,0.1c-1.6,0.8-7.1,4.3-11.6,16.3
			C622,144.7,621.9,145.1,621.8,145.4z"/>
	</g>
</g>
<g>
	<g>
		<polygon fill="#FFFFFF" points="417.6,176.9 417.6,127.2 341.7,127.2 341.7,176.8 		"/>
		<path fill="#2A2B2A" d="M417.6,178C417.6,178,417.6,178,417.6,178l-75.9-0.1c-0.6,0-1.1-0.5-1.1-1.1v-49.6c0-0.6,0.5-1.1,1.1-1.1
			h75.9c0.6,0,1.1,0.5,1.1,1.1v49.7c0,0.3-0.1,0.6-0.3,0.8C418.2,177.9,417.9,178,417.6,178z M342.8,175.7l73.7,0.1v-47.5h-73.7
			V175.7z"/>
	</g>
	<g>
		<polygon fill="#FFFFFF" points="394.4,176.8 364.9,176.8 359.1,187.7 400.3,187.7 		"/>
		<path fill="#2A2B2A" d="M400.3,188.8h-41.2c-0.4,0-0.7-0.2-0.9-0.5c-0.2-0.3-0.2-0.7,0-1.1l5.8-10.9c0.2-0.4,0.6-0.6,1-0.6h29.6
			c0.4,0,0.8,0.2,1,0.6l5.8,10.9c0.2,0.3,0.2,0.7,0,1.1C401,188.6,400.6,188.8,400.3,188.8z M360.9,186.6h37.6l-4.7-8.7h-28.3
			L360.9,186.6z"/>
	</g>
	<g>
		<rect x="341.7" y="167.5" fill="#FFFFFF" width="75.9" height="9.3"/>
		<path fill="#2A2B2A" d="M417.6,177.9h-75.9c-0.6,0-1.1-0.5-1.1-1.1v-9.3c0-0.6,0.5-1.1,1.1-1.1h75.9c0.6,0,1.1,0.5,1.1,1.1v9.3
			C418.7,177.4,418.2,177.9,417.6,177.9z M342.8,175.7h73.7v-7.1h-73.7V175.7z"/>
	</g>
	<g>
		<rect x="341.7" y="128.3" fill="#C22026" width="75.9" height="39.2"/>
		<path fill="#2A2B2A" d="M417.6,168.6h-75.9c-0.6,0-1.1-0.5-1.1-1.1v-39.2c0-0.6,0.5-1.1,1.1-1.1h75.9c0.6,0,1.1,0.5,1.1,1.1v39.2
			C418.7,168.1,418.2,168.6,417.6,168.6z M342.8,166.4h73.7v-37h-73.7V166.4z"/>
	</g>
	<circle fill="#C22026" cx="379.7" cy="172.2" r="2"/>
	<g>
		<g>
			<rect x="408.7" y="187.8" fill="#FFFFFF" width="17.9" height="6.6"/>
			<path fill="#2A2B2A" d="M426.5,195.4h-17.9c-0.6,0-1.1-0.5-1.1-1.1v-6.6c0-0.6,0.5-1.1,1.1-1.1h17.9c0.6,0,1.1,0.5,1.1,1.1v6.6
				C427.6,195,427.1,195.4,426.5,195.4z M409.7,193.3h15.7v-4.4h-15.7V193.3z"/>
		</g>
		<g>
			<rect x="408.7" y="157.2" fill="#FFFFFF" width="17.9" height="6.6"/>
			<path fill="#2A2B2A" d="M426.5,164.9h-17.9c-0.6,0-1.1-0.5-1.1-1.1v-6.6c0-0.6,0.5-1.1,1.1-1.1h17.9c0.6,0,1.1,0.5,1.1,1.1v6.6
				C427.6,164.4,427.1,164.9,426.5,164.9z M409.7,162.7h15.7v-4.4h-15.7V162.7z"/>
		</g>
		<g>
			<rect x="408.7" y="163.8" fill="#C22026" width="17.9" height="23.9"/>
			<path fill="#2A2B2A" d="M426.5,188.9h-17.9c-0.6,0-1.1-0.5-1.1-1.1v-23.9c0-0.6,0.5-1.1,1.1-1.1h17.9c0.6,0,1.1,0.5,1.1,1.1v23.9
				C427.6,188.4,427.1,188.9,426.5,188.9z M409.7,186.7h15.7v-21.8h-15.7V186.7z"/>
		</g>
		<circle fill="#C22026" cx="417.6" cy="191.1" r="1.2"/>
		<path fill="#C22026" d="M419.3,161.6h-3.5c-0.6,0-1.1-0.5-1.1-1.1c0-0.6,0.5-1.1,1.1-1.1h3.5c0.6,0,1.1,0.5,1.1,1.1
			C420.4,161.1,419.9,161.6,419.3,161.6z"/>
	</g>
</g>
<g>
	<path fill="#2A2B2A" d="M541.8,194.6H486c-0.6,0-1.1-0.5-1.1-1.1V127c0-0.6,0.5-1.1,1.1-1.1h55.8c0.6,0,1.1,0.5,1.1,1.1v66.5
		C542.9,194.1,542.4,194.6,541.8,194.6z M487,192.4h53.6v-64.3H487V192.4z"/>
	<g>
		<path fill="#2A2B2A" d="M534.2,142.5h-23.5c-0.6,0-1.1-0.5-1.1-1.1c0-0.6,0.5-1.1,1.1-1.1h23.5c0.6,0,1.1,0.5,1.1,1.1
			C535.2,142,534.8,142.5,534.2,142.5z"/>
		<path fill="#2A2B2A" d="M534.2,151.1h-23.5c-0.6,0-1.1-0.5-1.1-1.1s0.5-1.1,1.1-1.1h23.5c0.6,0,1.1,0.5,1.1,1.1
			S534.8,151.1,534.2,151.1z"/>
		<path fill="#2A2B2A" d="M534.2,159.7h-23.5c-0.6,0-1.1-0.5-1.1-1.1s0.5-1.1,1.1-1.1h23.5c0.6,0,1.1,0.5,1.1,1.1
			S534.8,159.7,534.2,159.7z"/>
		<path fill="#2A2B2A" d="M528,168.3h-17.4c-0.6,0-1.1-0.5-1.1-1.1c0-0.6,0.5-1.1,1.1-1.1H528c0.6,0,1.1,0.5,1.1,1.1
			C529.1,167.9,528.6,168.3,528,168.3z"/>
		<path fill="#2A2B2A" d="M534.2,177h-23.5c-0.6,0-1.1-0.5-1.1-1.1c0-0.6,0.5-1.1,1.1-1.1h23.5c0.6,0,1.1,0.5,1.1,1.1
			C535.2,176.5,534.8,177,534.2,177z"/>
		<path fill="#2A2B2A" d="M528,185.6h-17.4c-0.6,0-1.1-0.5-1.1-1.1s0.5-1.1,1.1-1.1H528c0.6,0,1.1,0.5,1.1,1.1
			S528.6,185.6,528,185.6z"/>
	</g>
	<path fill="#C22026" d="M495.9,151.1c-0.3,0-0.6-0.1-0.8-0.3l-3.5-3.4c-0.4-0.4-0.4-1.1,0-1.5c0.4-0.4,1.1-0.4,1.5,0l2.8,2.7
		l8.1-7.9c0.4-0.4,1.1-0.4,1.5,0c0.4,0.4,0.4,1.1,0,1.5l-8.8,8.6C496.5,151,496.2,151.1,495.9,151.1z"/>
	<path fill="#C22026" d="M495.9,185.6c-0.3,0-0.6-0.1-0.8-0.3l-3.5-3.4c-0.4-0.4-0.4-1.1,0-1.5c0.4-0.4,1.1-0.4,1.5,0l2.8,2.7
		l8.1-7.9c0.4-0.4,1.1-0.4,1.5,0c0.4,0.4,0.4,1.1,0,1.5l-8.8,8.6C496.5,185.5,496.2,185.6,495.9,185.6z"/>
	<g>
		<path fill="#C22026" d="M531.1,127L531.1,127c-0.1-2.3-1.9-4.1-4.2-4.1c0,0-0.1,0-0.1,0l0,0c0,0-3.2,0-4.3,0s-0.6-3.4-2.5-3.4
			c-1.9,0-10.4,0-12.2,0c-1.9,0-1.4,3.4-2.5,3.4c-1.1,0-4.3,0-4.3,0l0,0c0,0-0.1,0-0.1,0c-2.3,0-4.1,1.8-4.1,4.1l0,0l0,0
			c0,0,0,0,0,0c0,2.3,1.9,4.1,4.1,4.1h26.2C529.2,131.2,531.1,129.4,531.1,127C531.1,127.1,531.1,127.1,531.1,127L531.1,127z"/>
		<path fill="#2A2B2A" d="M526.9,132.3h-26.2c-2.8,0-5.1-2.3-5.2-5.1c0-0.1,0-0.1,0-0.2c0-0.1,0-0.2,0-0.2c0.1-2.7,2.5-5,5.2-5
			c0,0,0.1,0,0.1,0h4c0.1-0.2,0.1-0.4,0.2-0.6c0.3-1,0.8-2.8,2.7-2.8H520c1.9,0,2.4,1.8,2.7,2.8c0,0.2,0.1,0.4,0.2,0.6h4
			c0.1,0,0.1,0,0.1,0c2.8,0,5.1,2.2,5.2,5c0,0.1,0,0.1,0,0.2c0,0.1,0,0.1,0,0.2C532.1,130.1,529.8,132.3,526.9,132.3z M497.7,127.1
			C497.7,127.1,497.7,127.1,497.7,127.1c0,1.7,1.4,3.1,3,3.1h26.2c1.7,0,3-1.4,3-3c0,0,0,0,0,0c0,0,0,0,0,0c0-1.6-1.4-3-3-3
			c0,0-0.1,0-0.1,0v0h-4.3c-1.3,0-1.7-1.3-1.9-2.2c-0.1-0.5-0.3-1.2-0.6-1.2h-12.2c-0.2,0-0.4,0.7-0.6,1.2c-0.2,0.9-0.6,2.2-1.9,2.2
			H501c0,0-0.1,0-0.1,0c0,0,0,0,0,0C499.1,124,497.8,125.4,497.7,127.1C497.7,127,497.7,127,497.7,127.1z"/>
	</g>
	<g>
		<path fill="#C22026" d="M502.7,168.3c-0.3,0-0.6-0.1-0.8-0.3l-8.2-8.6c-0.4-0.4-0.4-1.1,0-1.5c0.4-0.4,1.1-0.4,1.5,0l8.2,8.6
			c0.4,0.4,0.4,1.1,0,1.5C503.2,168.2,503,168.3,502.7,168.3z"/>
		<path fill="#C22026" d="M494.5,168.3c-0.3,0-0.5-0.1-0.8-0.3c-0.4-0.4-0.4-1.1,0-1.5l8.2-8.6c0.4-0.4,1.1-0.5,1.5,0
			c0.4,0.4,0.4,1.1,0,1.5l-8.2,8.6C495,168.2,494.7,168.3,494.5,168.3z"/>
	</g>
</g>
<g>
	<path fill="#C32026" d="M975.9,389c-1.4-1-3.1-1.5-4.8-1.8c-2.6-0.5-5.3-0.3-7.9,0.4c-1.2,0.3-2.5,0.8-3.6,1.5
		c-1.1,0.6-2,1.5-3.1,2.2c-4.3,3.1-9,5.5-13.7,8c1,0.1,2.1,0.2,3.1,0.2c5.6,0.2,11.1-0.2,16.6-1.1c2.6-0.4,5.3-0.9,7.8-1.7
		c2.5-0.8,4.9-2,7.2-3.2c0.5-0.2,0.9-0.5,1.4-0.7C978.3,391.3,977.3,389.9,975.9,389L975.9,389z"/>
	<path fill="#C32026" d="M998,380.3c-2.3-1.1-4.8-1.9-7.4-2c-2.5-0.1-5,0.6-7.1,1.8c-1.8,1.1-3.5,2.6-4.2,4.6
		c-0.9,2.5,0,5.2,0.5,7.7c3.3-1.6,7-2.8,10.7-2.8c4.8,0.1,9.1,2,12.8,4.9c3.9,3.1,7.4,5.8,10.2,9.9l0.2-1.7c0-4.9-2.2-9.4-5-13.2
		C1005.8,385.7,1002.2,382.4,998,380.3L998,380.3z"/>
	<path fill="#C32026" d="M933.8,383.4c-1.6-1.2-3.3-2.2-5.1-2.9c-4.7-1.9-10-1.9-15-1.2c-2.7,0.4-5.3,1-7.9,1.8
		c-2.5,0.8-4.9,1.7-7.2,2.9c-8.6,4.6-14.9,12.7-16.8,22.3c3.4-3.2,7.4-5.9,11.7-7.9c4.5-2,9.3-3.3,14.2-3.8
		c10.5-1.2,21.2,0.3,31.1,3.8c1-3.6,1.1-7.8-1-11.1C936.7,385.9,935.3,384.5,933.8,383.4L933.8,383.4z"/>
	<path fill="#C32026" d="M1053.5,433.5c-0.5,0-1.1,0-1.6,0c-0.4,0-0.8,0.1-1.1-0.1c-1.8-1-3.6-2.1-5.5-3.1
		c-3.6-2.1-7.2-4.1-10.8-6.2c-2.3-1.4-4.5-2.9-6.7-4.6c-1.1-0.8-2.1-1.7-3.1-2.6c-0.5-0.5-0.9-0.9-1.4-1.4c-0.4-0.3-0.9-0.5-1.4-0.7
		c-2.5-1.1-4.9-2.3-7.3-3.6c-0.6-0.3-1.2-0.7-1.7-1c-0.3-0.2-0.5-0.4-0.8-0.5c-0.2-0.1-0.5-0.4-0.7-0.5c-0.1-0.1-0.3-0.1-0.5-0.1
		c-0.2,0-0.3,0-0.5,0c-0.3,0-0.7,0-1,0c-0.6,0-1.3,0-1.9,0c-5-0.2-10.1-1.1-14.6-3.5c-2.2-1.2-4.4-2.6-6.3-4.3
		c-1.9-1.7-4-3.5-5.6-5.5c0,1.3,0,2.3-0.5,3.5c-1.9,3.8-6,6.2-10,7.3c-2.6,0.8-5.3,1.1-8,1.2c-2.7,0.1-5.5,0-8.2-0.3
		c-5-0.5-10-1.9-14.4-4.4c-0.6-0.3-1.2-0.6-1.8-1c-0.2-0.2-0.3-0.1-0.5,0.1c-0.2,0.2-0.3,0.4-0.5,0.6c-0.9,0.9-1.9,1.7-3,2.4
		c-2.1,1.5-4.5,2.7-6.8,3.7c-2.5,1.1-5,2.1-7.7,2.9c-2.6,0.8-5.3,1.2-8,1.6c-2.7,0.4-5.5,0.6-8.2,0.9c-2.8,0.2-5.5,0.5-8.2,0.2
		c-2.7-0.3-5.5-0.8-8.2-1.4c-0.6-0.1-1.2-0.3-1.8-0.5c-0.5-0.1-0.9,0.4-1.3,0.6c-1.1,0.7-2.3,1.3-3.5,1.9c-1.2,0.6-2.4,1.2-3.7,1.7
		c-1.2,0.5-2.5,0.8-3.8,1.2c-1.3,0.4-2.6,0.8-3.8,1.3c-0.6,0.2-1.3,0.5-1.9,0.7c-0.5,0.2-1,0.4-1.5,0.8c-0.5,0.4-0.9,0.9-1.4,1.3
		c-0.5,0.4-1,0.8-1.5,1.2c-1.1,0.8-2.2,1.5-3.3,2.2c-2.3,1.4-4.7,2.6-7.1,3.9c-2.4,1.3-4.9,2.5-7.3,3.6c-0.6,0.3-1,0.6-1.7,0.6
		c-0.7,0-1.4,0-2,0c-1.4,0-2.8,0-4.2,0c5-2.2,9.9-4.5,14.6-7.4c2.2-1.4,4.3-2.9,6.3-4.6c1-0.9,1.8-1.9,2.7-2.8
		c0.9-0.9,1.8-1.8,2.8-2.6c3.8-3.2,8.3-5.5,13-7.2c-0.4-0.4-0.9-0.7-1.4-1c-0.5-0.3-0.9-0.7-1.4-1c-1-0.7-2-1.5-2.9-2.3
		c-3.7-3.1-6.8-6.9-8.8-11.3c-2.1-4.8-3-10.1-2.6-15.2c0.3-5.1,1.8-10.1,4.3-14.6c2.5-4.6,5.6-8.9,7.9-13.7
		c2.3-4.6,4.3-9.5,5.3-14.7c0.5-2.7,0.8-5.5,0.4-8.2c-0.2-1.4-0.5-2.7-0.8-4c-0.3-1.3-0.5-2.7-0.7-4.1c1.5,1.8,2.8,3.7,4,5.8
		c2.6,4.4,4.4,9.3,5.7,14.2c0.7,2.6,1.2,5.3,1.5,8c0.4,2.7,0.7,5.4,1.2,8.1c0.5,2.5,1.1,5,2.1,7.3c0.8,1.9,2,4.1,4.1,4.9
		c2,0.8,4.4,0.2,6.3-0.7c2.2-1,3.9-2.6,5.4-4.4c0.8-0.9,1.6-1.9,2.2-3.1c0.6-1.1,0.9-2.3,1.1-3.6c0.4-2.7,0.2-5.6-0.2-8.3
		c-0.8-5.2-2.9-10-4.5-15c-0.8-2.6-1.3-5.2-1.4-7.9c-0.1-2.7,0.2-5.5,0.7-8.1c1-5.2,3-10.2,5.2-15c1.1-2.5,2.3-4.9,3.6-7.2
		c1.3-2.3,2.8-4.5,4.1-6.8c2.8-4.9,5.6-9.8,8.3-14.7c-0.1,0.5,0,0.9-0.2,1.4c-0.1,0.5-0.4,1-0.5,1.5c-0.2,1-0.4,2.1-0.6,3.2
		c-0.4,2.2-0.8,4.4-1,6.6c-0.6,4.3-0.8,8.7-0.5,13.1c0.3,4.8,1.5,9.7,4.3,13.7c1.4,2,3.2,3.8,5.2,5.3c2.1,1.5,4.4,2.6,6.6,3.8
		c8.3,4.5,16.2,10.3,21.8,18c2.9,4,5.1,8.5,6.3,13.3c0.6,2.6,1.1,5.3,1.2,8c0.1,2.8-0.1,5.5-0.4,8.3c2.6-0.3,5.1-1.1,7.3-2.5
		c2-1.3,3.7-3.1,4.8-5.3c1.2-2.2,1.8-4.7,2.3-7.2c0.5-2.7,0.6-5.4,0.3-8.2c-0.5-5.5-1.7-10.9-2.9-16.3c-0.6-2.6-1.3-5.3-1.3-8
		c-0.1-2.6,0.4-5.3,1.3-7.8c0.8-2.4,2-4.7,3.4-6.8c1.5-2.3,3.2-4.4,4.8-6.6c-0.3,2.3-0.7,4.7-1,7c-0.3,2.2-0.2,4.4,0.3,6.5
		c0.9,4,2.8,7.7,5.2,11.1c2.9,4.3,6.4,8,10.1,11.7c3.8,3.7,7.6,7.4,10.9,11.6c3.2,3.9,6.1,8.2,8.3,12.9c1.1,2.4,2,4.9,2.6,7.5
		c0.6,2.7,0.7,5.4,0.9,8.2c0.3,5.3,0,10.7-1.4,15.9c-0.7,2.5-1.6,4.9-2.9,7.1c-1.3,2.2-2.9,4.1-4.6,5.9c3.2,1.1,6.2,2.9,8.9,4.9
		c1.4,1.1,2.7,2.2,3.9,3.5c0.6,0.6,1.2,1.3,1.8,1.9c0.7,0.7,1.4,1.3,2,2c3.5,3.2,7.5,5.8,11.6,8.3c4.2,2.6,8.5,5,12.9,7.4
		C1055.7,433.5,1054.6,433.5,1053.5,433.5L1053.5,433.5z M1082.3,203.1H811.7c-8.1,0-14.7,6.6-14.7,14.7v270.6
		c0,8.1,6.6,14.7,14.7,14.7h270.6c8.1,0,14.7-6.6,14.7-14.7V217.8C1097,209.7,1090.4,203.1,1082.3,203.1L1082.3,203.1z"/>
</g>
<g>
	<path d="M311.7,162.1h-5.2c-0.6,0-0.9-0.3-0.9-0.9V159c0-0.7,0.3-0.9,0.9-0.9h5.2v-5.2c0-0.7,0.2-1,0.8-1h2.2c0.7,0,0.9,0.3,0.9,1
		v5.2h5.2c0.7,0,1,0.2,1,0.9v2.2c0,0.7-0.3,0.9-1,0.9h-5.2v5.2c0,0.6-0.3,0.9-0.9,0.9h-2.2c-0.6,0-0.8-0.3-0.8-0.9V162.1z"/>
</g>
<g>
	<path d="M450.7,162.1h-5.2c-0.6,0-0.9-0.3-0.9-0.9V159c0-0.7,0.3-0.9,0.9-0.9h5.2v-5.2c0-0.7,0.2-1,0.8-1h2.2c0.7,0,0.9,0.3,0.9,1
		v5.2h5.2c0.7,0,1,0.2,1,0.9v2.2c0,0.7-0.3,0.9-1,0.9h-5.2v5.2c0,0.6-0.3,0.9-0.9,0.9h-2.2c-0.6,0-0.8-0.3-0.8-0.9V162.1z"/>
</g>
<g>
	<path d="M573.3,162.1h-5.2c-0.6,0-0.9-0.3-0.9-0.9V159c0-0.7,0.3-0.9,0.9-0.9h5.2v-5.2c0-0.7,0.2-1,0.8-1h2.2c0.7,0,0.9,0.3,0.9,1
		v5.2h5.2c0.7,0,1,0.2,1,0.9v2.2c0,0.7-0.3,0.9-1,0.9h-5.2v5.2c0,0.6-0.3,0.9-0.9,0.9h-2.2c-0.6,0-0.8-0.3-0.8-0.9V162.1z"/>
</g>
</svg>
