<?xml version="1.0" encoding="utf-8"?>
<!-- Generator: Adobe Illustrator 18.0.0, SVG Export Plug-In . SVG Version: 6.00 Build 0)  -->
<!DOCTYPE svg PUBLIC "-//W3C//DTD SVG 1.1//EN" "http://www.w3.org/Graphics/SVG/1.1/DTD/svg11.dtd">
<svg version="1.1" id="Layer_1" xmlns="http://www.w3.org/2000/svg" xmlns:xlink="http://www.w3.org/1999/xlink" x="0px" y="0px"
	 viewBox="0 0 200 200" enable-background="new 0 0 200 200" xml:space="preserve">
<path fill="none" stroke="#000000" stroke-width="4" stroke-miterlimit="10" d="M156.3,108.2c0,0,4.2-1.5,5.8-17.5
	c2.4-25.1-5.7-41.4-5.7-41.4s-11.6-20.6-33.2-26.7s-40.2,0-40.2,0s-22.6,5-35.2,27.7c-9.7,17.4-8,31.8-6.8,43.6
	c0.4,3.5,4.7,16.5,4.7,16.5"/>
<path fill="none" stroke="#000000" stroke-width="4" stroke-miterlimit="10" d="M46.3,112.9c-1.6-21.4,0-37.9,6-41.9
	c0,0,4.5-3.6,7.5-4.3S85,61,92,66.5c0,0,8.6,5.5,20.1,0.2c0,0,2-2.1,14.6-2.4c12.5-0.3,26.7,5.6,27.7,7.7c0,0,2,2.2,2,16.5
	c0,0,0.5,25.3,0,27.8c0,0-2.5,30.2-18.1,48.3s-29.8,18.6-36,18.6s-26.9-2.3-38-18.7C52,146,47.9,134.3,46.3,112.9z"/>
<path fill="none" stroke="#000000" stroke-width="4" stroke-miterlimit="10" d="M46.3,110.4c0,0-10.4,1.5-8.5,14.1
	c2.2,9.4,13.4,11.2,13.4,11.2"/>
<path fill="none" stroke="#000000" stroke-width="4" stroke-miterlimit="10" d="M156.9,109.1c0,0,9.8,1.5,8,14.1
	c-2.1,9.4-12.6,11.2-12.6,11.2"/>
</svg>
