<?xml version="1.0" encoding="utf-8"?>
<!-- Generator: Adobe Illustrator 18.0.0, SVG Export Plug-In . SVG Version: 6.00 Build 0)  -->
<!DOCTYPE svg PUBLIC "-//W3C//DTD SVG 1.1//EN" "http://www.w3.org/Graphics/SVG/1.1/DTD/svg11.dtd">
<svg version="1.1" id="Layer_1" xmlns="http://www.w3.org/2000/svg" xmlns:xlink="http://www.w3.org/1999/xlink" x="0px" y="0px"
	 viewBox="0 0 200 200" enable-background="new 0 0 200 200" xml:space="preserve">
<path fill="none" stroke="#260E02" stroke-width="6" stroke-miterlimit="10" d="M32.2,54.4c0,0-0.6-8.4,9.1-9.4
	c0,0,119.8-0.1,120.8-0.1c1,0,9.1,0.8,9.9,7.7V129c0,0,1.1,6-7.3,8H42c0,0-9.2-0.4-9.8-8L32.2,54.4z"/>
<line fill="none" stroke="#260E02" stroke-width="4" stroke-miterlimit="10" x1="32" y1="118" x2="172" y2="118"/>
<path fill="none" stroke="#260E02" stroke-width="4" stroke-miterlimit="10" d="M89.5,136.5c0,0,0.6,17.2-13.3,26.5
	c-0.2,0.1-1.3,1-5.5,1"/>
<line fill="none" stroke="#260E02" stroke-width="4" stroke-miterlimit="10" x1="64" y1="164" x2="141" y2="164"/>
<path fill="none" stroke="#260E02" stroke-width="4" stroke-miterlimit="10" d="M134.6,164c-0.6,0.2-3.1-0.6-3.5-0.7
	c-2.7-0.8-13.7-5.1-16.1-26.8"/>
<circle fill="none" stroke="#260E02" stroke-width="2" stroke-miterlimit="10" cx="102.8" cy="127.7" r="3.1"/>
</svg>
